<svg xmlns="http://www.w3.org/2000/svg" xmlns:xlink="http://www.w3.org/1999/xlink" width="322.413" height="238.805"><defs><linearGradient id="a" x1=".5" y1="1" x2=".5" gradientUnits="objectBoundingBox"><stop offset="0" stop-color="gray" stop-opacity=".251"/><stop offset=".54" stop-color="gray" stop-opacity=".122"/><stop offset="1" stop-color="gray" stop-opacity=".102"/></linearGradient><linearGradient id="b" x1=".5" y1="1" x2=".5" y2="0" xlink:href="#a"/><linearGradient id="c" x1="-.211" y1="3.614" x2="-.211" y2=".343" xlink:href="#a"/><linearGradient id="d" x1="-.036" y1="4.542" x2="-.036" y2="1.284" xlink:href="#a"/><linearGradient id="e" x1="-.017" y1="4.446" x2="-.017" y2="1.187" xlink:href="#a"/><linearGradient id="f" x1="-1.04" y1="1.715" x2="-1.04" y2=".715" xlink:href="#a"/><linearGradient id="g" x1=".551" y1=".784" x2=".551" y2=".225" xlink:href="#a"/><linearGradient id="h" x1=".5" y1="1" x2=".5" y2="0" xlink:href="#a"/></defs><g transform="translate(0 -.002)"><path data-name="Path 1103" d="M136.981 16.032c-10.578-4.3-21.756-7.9-33.168-7.442a49.317 49.317 0 00-40.772 25.57c-6.693 12.553-7.519 27.269-10.4 41.2-3.552 17.166-10.353 33.478-17.621 49.432-3.9 8.557-8.022 17.323-8.663 26.717-.891 13.04 5.344 26.037 15.12 34.719s22.764 13.251 35.79 14.251c6.935.532 14.181.04 20.342-3.187 6.517-3.415 11.267-9.588 17.809-12.951 6.064-3.13 13.156-3.557 19.964-3.15a89.4 89.4 0 0126.065 5.538c9.514 3.574 18.361 8.748 27.855 12.371s20.1 5.646 29.8 2.621c9.107-2.846 16.318-9.733 22.815-16.719a292.594 292.594 0 0029.084-36.8c5.86-8.777 11.312-18.037 13.9-28.268a56.479 56.479 0 00-16.987-54.982c-12.522-11.065-29.338-15.868-45.8-18.783-15.006-2.658-32.357-2.823-46.171-9.75-13.162-6.616-25.148-14.77-38.962-20.387z" fill="#6c63ff" opacity=".1"/><path data-name="Path 1104" d="M778.9 137.551c-4.064.162-4.269 10.655-4.016 11.113s-.922 5.194-.922 5.194-1.844 7.18-1.631 8.515a2.487 2.487 0 01-.993 2.208c-1.8.711-4.067 3.005-4.667 3.634l-.151.162a13.125 13.125 0 00-2.055 1.588c-.307.45-1.138.091-1.138.091a22.191 22.191 0 00-2.669-.137c-.211.063-.541-.324-.729-.569-.088-.117-.145-.2-.145-.2l-.071-2.117a1.735 1.735 0 00-.285-.176c.048-.239.108-.487.182-.74a6.34 6.34 0 002.587-2.322c.068-.108.131-.219.191-.33a.854.854 0 00.538.151 1.067 1.067 0 00.25-.023 2.023 2.023 0 00.729-.367 3.9 3.9 0 001.355-1.588 2.577 2.577 0 00.128-.378 5.778 5.778 0 01-.134.211 2.188 2.188 0 00-.151-1.847 6.065 6.065 0 01-.711-1.047c-.239-.686.213-1.394.492-2.066a3.475 3.475 0 00.253-1.947 2.487 2.487 0 00-1.053-1.642c-1.118-.726-2.635-.327-3.93-.677a10.638 10.638 0 01-1.352-.544 10.246 10.246 0 00-2.069-.643 2.024 2.024 0 00-1.992.4 4.087 4.087 0 00-.324.549 2.035 2.035 0 01-1.272.914 4.77 4.77 0 01-.783.083.757.757 0 000-.324c-.33-1.081.615-1.884 1.844-2.368a30.721 30.721 0 006.449-5.04c.544-.874 4.348-3.614 4.348-3.614a11.947 11.947 0 007.559-7.479c1.867-5.868-8.93 4.1-10.017 4.4a11.077 11.077 0 00-2.644 1.423l-6.924 4a25.076 25.076 0 00-3.734 2.578 12.537 12.537 0 00-2.738 3.91s-.663 1.081-1.631 2.647a7.206 7.206 0 01-2.112 2.245l.031-.057c-.077.094-2.459 3.1-2.669 4.417s-1.181 6.673-1.181 6.673-.854 4.209-1.44 5.037a14.434 14.434 0 01-.757 2.741c-.282.324-1.423 3.748-1.229 4.1 0 0-1.087 2.371-.9 3.267l-1.961 4.7a10.813 10.813 0 00-.993 3.68c.034.657.063 1.423.083 2.049v.57c-.105.176-.376.626-.657 1.17a6.089 6.089 0 00-.808 2.388c.046 1.07.048 3.683-.444 4.642l-.145-.057a1.992 1.992 0 00-.285.945l.034.017c0 .083-.026.168-.034.259-.12 1.09.054 2.607-.219 2.94-.378.461-.191 10.678-.191 10.678s-.615 6.395.615 10.447l-.094 3.173a29.558 29.558 0 00.094 3.415 33.286 33.286 0 01.191 3.452l.709 5.063s-.948 7.823-.142 9.756a10.632 10.632 0 01.854 3.361 5.227 5.227 0 001.3.5v.285l-.185 4.758v.262s-.023.125-.04.333v.117a.139.139 0 000 .034v.1a.7.7 0 000 .077.554.554 0 010 .068v.845a.822.822 0 00.023.142.145.145 0 000 .034.729.729 0 00.031.157.6.6 0 00.037.154.037.037 0 010 .017.28.28 0 00.023.08.145.145 0 000 .037.463.463 0 00.028.1v.023c.029.08.057.159.091.239a.1.1 0 000 .026.244.244 0 00.04.088l.017.04.037.077.023.043.04.071.026.043c0 .023.026.046.04.068a.53.53 0 01.028.046l.043.065.031.043.046.065.034.043.051.063.034.04.06.068.031.034.1.094a.146.146 0 00.031.028.78.78 0 00.071.065l.046.037.063.051.054.04.063.046.06.04.063.04.065.037.065.04.068.034.071.034.071.034.071.031.077.031.077.028.08.028.085.026.134.04.111.028.088.017.091.02h.1l.094.014h1.2l.154-.014h.094l.259-.028s3.224.481 3.33-.794a1.022 1.022 0 01.014-.2v-.162a.424.424 0 010-.06v-1.648a55.708 55.708 0 00-.071-1.545 2.073 2.073 0 00-.017-.285s-1.1-1.656-.919-2.277a16.38 16.38 0 00.139-2.726s-.427-1.01-.714-1.9c-.023-.068-.043-.137-.063-.2a10.5 10.5 0 00.672-.854 10.814 10.814 0 00-.8-6.488.4.4 0 01-.174-.333.139.139 0 010-.034l.549-6.719-.333-3.91a10.766 10.766 0 01.285-3.822l1.039-10.123 1.474-5.888s.472-.231.854.877 1.32 6.119 1.32 6.119l2.277 8.284a16.443 16.443 0 00.709 3.361 6.411 6.411 0 01.333 2.254 5.824 5.824 0 01.615 2.117 9.158 9.158 0 00.233 2.991 40.549 40.549 0 01.333 4.838 9.773 9.773 0 00.094 4.189 14.75 14.75 0 01.236 4.787 3.268 3.268 0 00.194.268 19.744 19.744 0 01-.336.837 16.78 16.78 0 00.142 2.726c.176.62-.922 2.277-.922 2.277s0 .1-.017.285c-.02.327-.051.911-.071 1.545v1.622a.363.363 0 000 .054v.165a1.05 1.05 0 00.014.2c.108 1.275 3.332.794 3.332.794l.259.031h1.44l.1-.017.094-.014.091-.02.091-.017.111-.028.134-.04.083-.026.08-.028a.613.613 0 00.077-.028l.077-.031.074-.031.071-.031.071-.037.065-.034.068-.037.063-.04.065-.04.057-.04.063-.046a.381.381 0 00.054-.04.527.527 0 00.063-.048l.048-.04.071-.063.031-.031.1-.094.028-.034.063-.065.031-.043a.568.568 0 00.054-.063l.031-.043.048-.065.028-.043.046-.065a.394.394 0 01.028-.046c0-.023.026-.046.04-.068l.026-.043c0-.026.026-.048.037-.071a.314.314 0 00.023-.043c0-.026.026-.051.037-.077l.02-.04c0-.028.026-.057.04-.088v-.026c.031-.08.063-.159.088-.239v-.024a.305.305 0 01.031-.094.217.217 0 010-.04.108.108 0 01.023-.08v-.014a.038.038 0 000-.017.688.688 0 01.04-.151.981.981 0 01.031-.154v-.037a1.1 1.1 0 01.023-.139.112.112 0 000-.048v-.87a.7.7 0 010-.077v-.1a.139.139 0 010-.034v-.114a4.82 4.82 0 00-.037-.333v-.259l-.179-4.6v-.285c.265-.148.535-.316.817-.512 0 0-.048-2.624.709-3.68s-.378-3.822-.378-3.822l-.472-9.895.188-4.553a4.527 4.527 0 01-.569-2.208 8.035 8.035 0 00-.757-2.846s-.472-1.565.1-2.026-.615-10.53-.615-10.53a95.007 95.007 0 00-.256-11.725v-.071l.151-.068c-.045-.35-.094-.677-.148-.982l-.159.048a8 8 0 00-.285-1.138l-.757-3.475s-.017-.182-.037-.447a17.724 17.724 0 01-.06-1.11 1.88 1.88 0 01.051-.467l-.04-.034a1.035 1.035 0 01.04-.242l-.165-.139s-.023-.157-.04-.4a4.451 4.451 0 01.2-1.972c.378-.76 4.269-3.637 4.269-3.637l2.18-4.363s2.174-3.062 3.828-3.66a62.012 62.012 0 006.8-4.024 16.974 16.974 0 001.934-2.276l.06-.091h.034v-.06l4.838-7.248c1.935-1.565 2.006-4.9 2.006-4.9l.5-7.621-.165-4.508.233-2.561s4.258-10.819.194-10.66zm-27.71 19.722a6.1 6.1 0 00-.8 3.022v.276a6.078 6.078 0 00.646 2.726 2.234 2.234 0 00-.469.834 4.526 4.526 0 01-.979-1.836 1.91 1.91 0 00-.757-1.241 5.212 5.212 0 01.046-1.634l.026-.023s.02-.034.06-.091c.2-.3.882-1.332 1.585-2.5a2.239 2.239 0 00.361.12l.433.108z" transform="translate(-530.976 -103.323)" fill="url(#a)"/><path data-name="Path 1105" d="M855.354 216.542c.043-.1.077-.2.111-.3a6.294 6.294 0 00-.285.7c.06-.142.12-.269.174-.4z" transform="translate(-621.354 -163.36)" fill="url(#b)"/><path data-name="Path 1106" d="M221.478 59.949s-.891 4.246-2.533 4.8 1.992 5.407 1.992 5.407l7.533-.413.137-1.574a7.777 7.777 0 01.959-6.984c2.382-3.837-8.088-1.236-8.088-1.236z" fill="#f6bac2"/><path data-name="Path 1107" d="M209.665 160.2c-.1 1.266-3.219.788-3.219.788-5.168.717-4.314-4.348-4.314-4.348v-.259l.179-4.724.051-1.318s5.692-2.6 5.547-2.055a3.236 3.236 0 00.231 1.229c.285.885.692 1.887.692 1.887a17.018 17.018 0 01-.137 2.7c-.171.615.891 2.26.891 2.26s0 .1.017.285a33.2 33.2 0 01.062 3.555z" fill="#b77983"/><path data-name="Path 1108" d="M219.628 161.569s-3.116.481-3.219-.788a32.375 32.375 0 01.054-3.56 2.538 2.538 0 01.014-.285s1.062-1.645.891-2.26a17.051 17.051 0 01-.137-2.706s.111-.265.256-.646a7.872 7.872 0 00.669-2.467c-.137-.549 5.547 2.052 5.547 2.052l.057 1.474.174 4.568v.259s.86 5.079-4.306 4.359z" fill="#b77983"/><path data-name="Path 1109" d="M240.992 31.853a11.667 11.667 0 01-7.3 7.419s-3.677 2.726-4.2 3.58a30.191 30.191 0 01-6.232 5c-1.19.481-2.1 1.278-1.779 2.348.285.993-2.829 5.854-3.3 6.577l-.057.091-.982 1.027-3.333 1.688-2.715-.868-.344-3.261 1.44-2.561a7.066 7.066 0 002.04-2.228c.936-1.554 1.577-2.624 1.577-2.624a12.52 12.52 0 012.647-3.882 23.945 23.945 0 013.606-2.561l6.691-3.984a10.787 10.787 0 012.561-1.423c1.054-.306 11.484-10.158 9.68-4.338z" fill="#f6bac2"/><path data-name="Path 1110" d="M213.808 57.484l4.451-.891a.284.284 0 00-.08.185l-.057.091-.982 1.027-3.332 1.688-2.715-.868-.344-3.261 1.44-2.561a5.1 5.1 0 00-.034 4.866z" opacity=".05"/><path data-name="Path 1111" d="M239.836 72.186a.839.839 0 00-.031.091 1.252 1.252 0 01-.165.285l-1.8.877-2.741.285-1.419-3.449.948-3.776.524-.706.145-.159c.054.683.33 4.246.313 5.316-.023 1.187.854 1.281.854 1.281z" opacity=".05"/><path data-name="Path 1112" d="M239.7 72.448a.826.826 0 00-.031.091 16.649 16.649 0 01-1.87 2.26 58.428 58.428 0 01-6.574 3.984c-1.6.583-3.7 3.628-3.7 3.628l-2.1 4.334s-3.765 2.846-4.129 3.609a4.5 4.5 0 00-.2 1.958 2.032 2.032 0 00.034.393l-1.11 1.158-.885.922-1.246 1.3-2.029-.285-6.323-1-1.212-.683-6.73-3.791s0-.236-.017-.6c0-.159 0-.341-.017-.544-.02-.615-.048-1.38-.08-2.032a10.971 10.971 0 01.959-3.651l1.892-4.659c-.182-.888.868-3.241.868-3.241a13.534 13.534 0 011.187-4.061 14.476 14.476 0 00.731-2.718c.569-.82 1.392-5 1.392-5s.936-5.3 1.138-6.619 2.5-4.289 2.578-4.38a5.187 5.187 0 00-.2 5.2l1.645-.285 4.454-.868c-.2.137-.068 1.642-.068 1.642a1.9 1.9 0 01.729 1.232 4.727 4.727 0 001 1.892l.023.026a2.228 2.228 0 011.073-1.531l1.027 1.372.344 1.642s-.094.231-.686.686.25 1.642.25 1.642a8.363 8.363 0 01.367 2.26 3.328 3.328 0 011.938-.66 5.868 5.868 0 001.164-1.668.689.689 0 01.982-.455 6.308 6.308 0 011.118-.777c.549-.285 1.187.285 1.187.285l.068 2.1s.054.085.142.2c.179.25.5.635.7.569a20.847 20.847 0 012.578.137s.8.342 1.1-.091a13.5 13.5 0 011.992-1.574s.327 4.237.327 5.421.854 1.281.854 1.281z" fill="#fe5045"/><path data-name="Path 1113" d="M239.751 72.448h-.06c.11-.282.06 0 .06 0z" fill="none"/><circle data-name="Ellipse 491" cx=".41" cy=".41" r=".41" transform="translate(220.612 69.264)" fill="#4b4442"/><circle data-name="Ellipse 492" cx=".41" cy=".41" r=".41" transform="translate(217.621 75.223)" fill="#4b4442"/><circle data-name="Ellipse 493" cx=".41" cy=".41" r=".41" transform="translate(211.733 87.981)" fill="#4b4442"/><circle data-name="Ellipse 494" cx=".41" cy=".41" r=".41" transform="translate(214.516 81.543)" fill="#4b4442"/><path data-name="Path 1114" d="M208.161 149.514a5.5 5.5 0 01-5.828 2.143l.051-1.318s5.692-2.6 5.547-2.055a3.022 3.022 0 00.23 1.23z" opacity=".05"/><path data-name="Path 1115" d="M223.76 152.394c-3.634 2.1-5.766-.361-6.261-1.059a7.872 7.872 0 00.669-2.467c-.137-.549 5.547 2.052 5.547 2.052z" opacity=".05"/><path data-name="Path 1116" d="M225.22 147.966c-.729 1.05-.686 3.651-.686 3.651-4.7 3.378-7.166-.731-7.166-.731a15.116 15.116 0 00-.228-4.747 9.9 9.9 0 01-.091-4.155 40.071 40.071 0 00-.322-4.792 9.17 9.17 0 01-.228-2.968 5.855 5.855 0 00-.592-2.1 6.452 6.452 0 00-.322-2.237 16.463 16.463 0 01-.683-3.335l-2.188-8.216s-.914-4.975-1.278-6.07-.822-.868-.822-.868l-1.315 5.888-1 10.043a11.017 11.017 0 00-.285 3.791l.319 3.879-.529 6.665a.139.139 0 000 .034.407.407 0 00.165.33 10.967 10.967 0 01.766 6.437c-3.469 5.023-7.67 2.419-7.67 2.419a10.652 10.652 0 00-.82-3.33c-.777-1.918.137-9.676.137-9.676l-.686-5.023a33.64 33.64 0 00-.182-3.415 30.053 30.053 0 01-.091-3.378l.091-3.15c-1.187-4.018-.595-10.362-.595-10.362s-.182-10.134.185-10.592c.265-.33.1-1.833.211-2.917a2.035 2.035 0 01.268-.936l.046-.046c.595-.731.595-3.651.546-4.8a6.158 6.158 0 01.783-2.368 28.56 28.56 0 01.64-1.172l.04-.065s2.6.64 9.494 3.927a12.954 12.954 0 003.922 1.215 8.723 8.723 0 002.046.031 7.143 7.143 0 002.943-.956 5.174 5.174 0 001.272-1.022 8.5 8.5 0 000 1.838c.017.265.037.444.037.444l.76 3.387a8.87 8.87 0 01.285 1.227c.054.3.1.629.142.976a94.621 94.621 0 01.238 11.637s1.138 10 .595 10.453-.094 2.009-.094 2.009a8.1 8.1 0 01.731 2.829 4.554 4.554 0 00.549 2.191l-.185 4.519.478 9.8s1.1 2.756.369 3.807z" fill="#481a89"/><path data-name="Path 1117" d="M219.867 131.44s3.458-1.992 4.212-1.1-4.212 1.1-4.212 1.1z" opacity=".05"/><path data-name="Path 1118" d="M221.955 132.535s-.569.285.686.649-.686-.649-.686-.649z" opacity=".05"/><path data-name="Path 1119" d="M201.047 127.057a5.306 5.306 0 005.581.376 41.618 41.618 0 00-5.581-.376z" opacity=".05"/><path data-name="Path 1120" d="M206.48 130.856a3.67 3.67 0 01-2.5 1.85c-1.677.239 2.5-1.85 2.5-1.85z" opacity=".05"/><path data-name="Path 1121" d="M217.47 134.351s3.939 6.261 3.185 7.738-3.185-7.738-3.185-7.738z" opacity=".05"/><path data-name="Path 1122" d="M210.828 96.379l-.41 12.257s2.43-.1 2.846-4.141.72-7.328.72-7.328z" opacity=".05"/><path data-name="Path 1123" d="M210.692 96.106l-.41 12.257s2.43-.1 2.846-4.144.726-7.325.726-7.325z" fill="#00051a"/><path data-name="Path 1124" d="M205.762 96.655s-1.918 5.142-6.306 2.652a2.024 2.024 0 01.268-.936c1.2.5 3.984 1.241 5.122-2.095z" opacity=".05"/><path data-name="Path 1125" d="M205.626 96.106s-1.918 5.142-6.306 2.652a2.035 2.035 0 01.268-.936c1.2.507 3.984 1.241 5.122-2.092z" opacity=".05"/><path data-name="Path 1126" d="M205.626 96.379s-1.918 5.142-6.306 2.652a2.035 2.035 0 01.268-.936c1.2.507 3.984 1.241 5.122-2.092z" fill="#8499f0"/><path data-name="Path 1127" d="M222.416 100.997c-4.821 2.294-6.588-3.113-6.588-3.113l1.138.034c.2 3.458 4.01 2.527 5.316 2.1.046.319.091.635.134.979z" fill="#00051a" opacity=".05"/><path data-name="Path 1128" d="M222.69 100.59c-4.818 2.291-6.588-3.116-6.588-3.116l1.138.034c.2 3.458 4.01 2.53 5.316 2.106.046.302.091.629.134.976z" opacity=".05"/><path data-name="Path 1129" d="M222.553 100.727c-4.818 2.291-6.588-3.116-6.588-3.116l1.138.034c.2 3.461 4.01 2.53 5.316 2.106.046.302.091.629.134.976z" fill="#8499f0"/><path data-name="Path 1130" d="M205.626 96.379s-1.918 5.142-6.306 2.652a2.035 2.035 0 01.268-.936c1.2.507 3.984 1.241 5.122-2.092z" fill="#00051a" opacity=".7"/><path data-name="Path 1131" d="M222.553 100.727c-4.818 2.291-6.588-3.116-6.588-3.116l1.138.034c.2 3.461 4.01 2.53 5.316 2.106.046.302.091.629.134.976z" fill="#311" opacity=".63"/><path data-name="Path 1132" d="M209.698 159.246a8.07 8.07 0 01-.034.948c-.1 1.266-3.219.788-3.219.788-2.846.4-3.87-.97-4.209-2.277a5.207 5.207 0 01-.156-1.3 5.383 5.383 0 01.051-.78v-.259a1.9 1.9 0 011.77.361 3.006 3.006 0 002.945.239 3.952 3.952 0 011.708.512c.268.231.709-.324 1.044-.854.02.341.051.959.071 1.619.023.34.029.685.029 1.003z" opacity=".05"/><path data-name="Path 1133" d="M204.701 159.172s-.854.837-2.464-.455a5.208 5.208 0 01-.156-1.3 14.888 14.888 0 002.62 1.755z" opacity=".05"/><path data-name="Path 1134" d="M209.699 159.246a.643.643 0 01-.925-.148 6.085 6.085 0 00.911-.854c.008.341.014.683.014 1.002z" opacity=".05"/><path data-name="Path 1135" d="M216.377 159.832a8.752 8.752 0 00.031.948c.1 1.269 3.219.788 3.219.788 2.846.4 3.87-.968 4.209-2.277a5.467 5.467 0 00.105-2.077v-.259a1.927 1.927 0 00-1.773.361 3 3 0 01-2.943.239 3.968 3.968 0 00-1.708.515c-.268.23-.709-.324-1.042-.854-.02.341-.054.959-.074 1.619a13.99 13.99 0 00-.024.997z" opacity=".05"/><path data-name="Path 1136" d="M221.375 159.753s.854.837 2.462-.455a5.192 5.192 0 00.159-1.295 15.219 15.219 0 01-2.621 1.75z" opacity=".05"/><path data-name="Path 1137" d="M216.378 159.833a.64.64 0 00.922-.148 6.018 6.018 0 01-.911-.854c-.008.339-.014.68-.011 1.002z" opacity=".05"/><path data-name="Path 1138" d="M212.621 72.448s-4.383 12.1-2.7 13.148 2.7-13.148 2.7-13.148z" opacity=".05"/><path data-name="Path 1139" d="M215.817 68.714s-.825 4.018-.413 4.383.413-4.383.413-4.383z" opacity=".05"/><path data-name="Path 1140" d="M224.667 78.074s-5.387 5.02-5.023 5.433 5.023-5.433 5.023-5.433z" opacity=".05"/><path data-name="Path 1141" d="M228.785 67.024c-2.04.623-6.81 2.08-6.864 2.069l.265-1.087a3.328 3.328 0 011.938-.66 5.867 5.867 0 001.164-1.668.689.689 0 01.982-.455 6.479 6.479 0 011.118-.777c.549-.285 1.187.285 1.187.285l.068 2.1s.054.076.142.193z" opacity=".05"/><path data-name="Path 1142" d="M228.785 66.756c-2.04.623-6.81 2.08-6.864 2.066l.265-1.084a3.328 3.328 0 011.938-.66 5.867 5.867 0 001.164-1.668.689.689 0 01.982-.455 6.313 6.313 0 011.118-.777c.549-.285 1.187.285 1.187.285l.068 2.1.142.193z" fill="#d39999"/><path data-name="Path 1143" d="M221.682 65.618a8.336 8.336 0 01.364 2.26l-.794.632-1.508-4.348-.068-2.26-.028-.128.023.026a2.217 2.217 0 011.073-1.528l1.027 1.369.344 1.642s-.094.231-.686.686.253 1.649.253 1.649z" opacity=".05"/><path data-name="Path 1144" d="M221.822 65.473a8.363 8.363 0 01.367 2.26l-.794.64-1.508-4.348-.068-2.26-.031-.128.023.026a2.228 2.228 0 011.073-1.531l1.027 1.372.344 1.642s-.094.231-.686.686.253 1.641.253 1.641z" fill="#d39999"/><path data-name="Path 1145" d="M231.884 58.034a6.11 6.11 0 11-1.789-4.374 6.161 6.161 0 011.789 4.374z" opacity=".05"/><path data-name="Path 1146" d="M231.884 57.758a6.127 6.127 0 11-1.795-4.367 6.164 6.164 0 011.795 4.367z" fill="#f6bac2"/><path data-name="Path 1147" d="M231.884 57.758a6.128 6.128 0 01-.9 3.2c-.091-.162-.145-.35-.236-.515-.128-.23-.424-.424-.643-.285a.658.658 0 00-.2.285c-.179.379-.5.757-.916.748a.908.908 0 01-.78-.666 2.734 2.734 0 01-.046-1.087 2.478 2.478 0 00-.475-2.092 3.114 3.114 0 00-1.19-.532 1.56 1.56 0 01-1.025-.757c-.114-.285-.085-.586-.188-.854a1.494 1.494 0 00-1.107-.814 2.9 2.9 0 01-1.938.663 7.263 7.263 0 01-1.907-.3 6.164 6.164 0 0111.548 3z" opacity=".05"/><path data-name="Path 1148" d="M225.288 54.938c.1.285.074.592.188.854a1.554 1.554 0 001.025.757 3.131 3.131 0 011.19.529 2.486 2.486 0 01.475 2.095 2.734 2.734 0 00.046 1.087.913.913 0 00.78.666 1.132 1.132 0 00.916-.748.663.663 0 01.2-.285c.219-.145.515.048.643.285a2.82 2.82 0 00.367.692.819.819 0 00.748.171 1.887 1.887 0 00.7-.364 3.853 3.853 0 001.309-1.574 2.26 2.26 0 00-.083-1.992 5.98 5.98 0 01-.686-1.042c-.233-.68.2-1.38.475-2.046a3.551 3.551 0 00.242-1.932 2.482 2.482 0 00-1.016-1.631c-1.081-.72-2.544-.324-3.8-.672a9.627 9.627 0 01-1.306-.538 9.676 9.676 0 00-1.992-.637 1.94 1.94 0 00-1.932.39 4.307 4.307 0 00-.313.546 1.966 1.966 0 01-1.229.9c-.367.088-.751.065-1.138.12a1.252 1.252 0 00-.948.544 1.886 1.886 0 00-.063 1.138 1.155 1.155 0 01-.285 1.073c-.145.111-.344.165-.433.322a.452.452 0 00.134.538 1.283 1.283 0 00.544.239 8.318 8.318 0 002.183.373 2.88 2.88 0 002.032-.748c-.048.048-.361.028-.418.026a1.663 1.663 0 011.445.864z" fill="#7e646b"/><g data-name="Group 24" opacity=".05"><path data-name="Path 1149" d="M232.92 59.983a1.937 1.937 0 01-.7.367.825.825 0 01-.746-.174 2.777 2.777 0 01-.37-.692c-.128-.231-.424-.424-.643-.285a.7.7 0 00-.2.285 1.114 1.114 0 01-.916.748.9.9 0 01-.777-.666 2.735 2.735 0 01-.048-1.087 2.479 2.479 0 00-.472-2.092 3.131 3.131 0 00-1.192-.532 1.567 1.567 0 01-1.024-.757c-.114-.285-.085-.586-.188-.854a1.488 1.488 0 00-1.107-.814 2.954 2.954 0 01-1.938.666 8.441 8.441 0 01-2.183-.376 1.317 1.317 0 01-.544-.236.6.6 0 01-.088-.1.8.8 0 00-.319.248.452.452 0 00.134.538 1.283 1.283 0 00.544.239 8.319 8.319 0 002.183.373 2.928 2.928 0 001.935-.663 1.489 1.489 0 011.11.811c.1.285.074.592.188.854a1.56 1.56 0 001.024.757 3.13 3.13 0 011.19.529 2.486 2.486 0 01.475 2.095 2.735 2.735 0 00.046 1.087.913.913 0 00.78.666 1.132 1.132 0 00.916-.748.663.663 0 01.2-.285c.219-.145.515.048.643.285a2.735 2.735 0 00.37.692.814.814 0 00.746.171 1.887 1.887 0 00.7-.364 3.853 3.853 0 001.309-1.574 2.513 2.513 0 00.122-.376 4.058 4.058 0 01-1.158 1.266z"/><path data-name="Path 1150" d="M233.489 54.4c.06-.131.117-.262.171-.39a2.583 2.583 0 00.105-.3 6.73 6.73 0 00-.276.69z"/><path data-name="Path 1151" d="M220.183 52.605a1.167 1.167 0 00.259-1.047 4.65 4.65 0 01-.054-.657.968.968 0 00-.156.2 1.886 1.886 0 00-.063 1.138 2.222 2.222 0 01.014.366z"/></g><path data-name="Path 1152" d="M221.304 94.976a63.84 63.84 0 01-4.224.142c-.649 0-1.335 0-2.046-.031a43.871 43.871 0 01-6.708-.692c-2.957-.569-5.692-1.551-7.4-3.213.285-.552.544-1.01.64-1.172 0-.159 0-.344-.017-.544 3 1.423 12.362 5.376 19.537 3.13a2.032 2.032 0 00.034.393l.162.137a8.638 8.638 0 00.022 1.85z" opacity=".05"/><path data-name="Path 1153" d="M221.304 94.702c-.529.037-1.272.077-2.166.105-.62.023-1.315.034-2.058.034-.649 0-1.335 0-2.046-.031a43.865 43.865 0 01-6.708-.689c-2.957-.569-5.692-1.554-7.4-3.216a28.56 28.56 0 01.64-1.172c0-.159 0-.341-.017-.544 3 1.423 12.362 5.379 19.537 3.145a2.032 2.032 0 00.034.393l.162.137a8.531 8.531 0 00.022 1.838z" fill="#4b4442"/><path data-name="Path 1154" d="M79.266 219.257a3.913 3.913 0 01-.874-2.98l12.562-102.783 1.042-8.538a3.941 3.941 0 013.882-3.461l36.794-.245a3.936 3.936 0 003.91-4.044l-.014-.39a3.939 3.939 0 013.936-4.072h38.662a3.936 3.936 0 013.936 3.927 4.2 4.2 0 01-.034.529 3.936 3.936 0 003.8 4.457l37.132.948a3.933 3.933 0 013.779 4.6l-18.561 108.426-.35 2.049a3.85 3.85 0 01-.569 1.468z" fill="#b7b6cc"/><g data-name="Group 25"><path data-name="Rectangle 89" transform="rotate(-55.39 199.683 -75.609)" fill="url(#c)" d="M0 0h74.797v22.869H0z" opacity=".5"/></g><path data-name="Rectangle 90" fill="#f9fafb" d="M191.322 70.969l17.894 12.35-41.916 60.733-17.894-12.35z"/><path data-name="Rectangle 91" fill="#ffa25a" d="M192.611 73.846l12.602 8.765-8.765 12.602-12.602-8.765z"/><path data-name="Rectangle 92" fill="#f7b643" opacity=".5" d="M182.737 89.035l12.65 8.73-8.73 12.65-12.65-8.73z"/><path data-name="Rectangle 93" fill="#f7b643" opacity=".3" d="M172.187 104.302l12.65 8.73-8.73 12.65-12.65-8.73z"/><g data-name="Group 26"><path data-name="Rectangle 94" transform="rotate(-73.7 164.282 -27.377)" fill="url(#d)" d="M0 0h74.518v22.869H0z" opacity=".5"/></g><path data-name="Rectangle 95" fill="#f9fafb" d="M166.048 67.166l20.872 6.088-20.584 70.576-20.873-6.088z"/><path data-name="Rectangle 96" fill="#fe5045" d="M168.787 69.203l14.755 4.304-4.303 14.755-14.756-4.304z"/><path data-name="Rectangle 97" fill="#f97878" opacity=".5" d="M163.582 87.014l14.755 4.304-4.303 14.755-14.756-4.304z"/><path data-name="Rectangle 98" fill="#f97878" opacity=".3" d="M158.377 104.823l14.755 4.304-4.303 14.755-14.756-4.304z"/><g data-name="Group 27"><path data-name="Rectangle 99" transform="rotate(-85.41 149.208 -7.355)" fill="url(#e)" d="M0 0h74.518v22.869H0z" opacity=".5"/></g><path data-name="Rectangle 100" fill="#f9fafb" d="M151.266 68.279l21.677 1.74-5.882 73.296-21.676-1.74z"/><path data-name="Rectangle 101" fill="#ff795a" d="M154.35 69.721l15.324 1.23-1.23 15.323-15.324-1.23z"/><path data-name="Rectangle 102" fill="#ff795a" opacity=".5" d="M152.86 88.213l15.324 1.23-1.23 15.323-15.324-1.23z"/><path data-name="Rectangle 103" fill="#73b53b" opacity=".3" d="M151.373 106.712l15.324 1.23-1.23 15.323-15.324-1.23z"/><g data-name="Group 28"><path data-name="Rectangle 104" transform="rotate(-2.61 1623.41 -3053.712)" fill="url(#f)" d="M0 0h22.869v74.518H0z" opacity=".5"/></g><path data-name="Rectangle 105" fill="#fff" d="M141.515 71.225l21.72-.99 3.347 73.44-21.72.99z"/><path data-name="Rectangle 106" fill="#481a89" d="M144.753 72.263l15.354-.7.7 15.354-15.354.7z"/><path data-name="Rectangle 107" fill="#6c63ff" opacity=".5" d="M146.2 90.213l15.37-.768.77 15.37-15.372.769z"/><path data-name="Rectangle 108" fill="#6c63ff" opacity=".3" d="M146.443 109.337l15.354-.7.7 15.354-15.354.7z"/><path data-name="Path 1155" d="M150.739 168.108l-19.318 7.473-28.232 10.914c-1.067-1.992-2.638-4.684-4.582-7.9-6.688-11.082-17.752-28.319-27.6-43.467-11.1-17.075-20.652-31.484-20.652-31.484l6.915-1.992 56.49-16.4z" fill="#e6ecf8"/><path data-name="Path 1156" d="M150.739 168.108l-19.318 7.473a145.2 145.2 0 01-32.824 3.017c-6.688-11.082-17.752-28.319-27.6-43.467l-13.73-33.488 56.487-16.389z" opacity=".1"/><path data-name="Path 1157" d="M165.11 163.458s-30.009 17.752-74.814 13.737L54.578 90.112l17.118-2.943 59.176-10.162 33.581 84.758z" fill="#481a89"/><path data-name="Path 1158" d="M164.441 161.776a141.848 141.848 0 01-23.467-.669c-8.9-1.047-17.855-3.2-25.53-7.16a77.367 77.367 0 01-16.688-11.21c-12.445-11.193-20.146-27.2-27.061-55.556l59.176-10.162z" opacity=".1"/><path data-name="Path 1159" d="M186.457 156.909s-22.121 4.331-44.637 1.665c-8.9-1.047-17.855-3.2-25.53-7.16a77.439 77.439 0 01-16.688-11.21c-15.4-13.856-23.535-35.092-31.922-77.976 0 0 36.774 8.876 73.138-10.567-.011.012 12.246 76.503 45.639 105.248z" fill="#f9fafb"/><path data-name="Path 1160" d="M141.819 158.572c-8.9-1.047-17.855-3.2-25.53-7.16a77.437 77.437 0 01-16.688-11.21c13.114-1.064 15-8.233 15-8.233 9.719 15.427 27.218 26.603 27.218 26.603z" opacity=".1"/><path data-name="Path 1161" d="M86.701 77.969s29.9-1.69 38.254-8.136l1.266 4.07s-19.758 8.72-39.52 8.82z" fill="#6c63ff" opacity=".3"/><path data-name="Path 1162" d="M86.701 98.061s28.954-1.585 50.83-12.152l.74 1.69s-17.36 10.134-51.569 12.786z" fill="#6c63ff" opacity=".3"/><path data-name="Path 1163" d="M89.032 105.89s28.954-1.585 50.827-12.152l.74 1.69s-17.36 10.131-51.567 12.786z" fill="#6c63ff" opacity=".3"/><path data-name="Path 1164" d="M91.36 113.73s28.954-1.585 50.83-12.152l.737 1.69s-17.36 10.134-51.567 12.786z" fill="#6c63ff" opacity=".3"/><path data-name="Path 1165" d="M93.691 121.57s28.954-1.585 50.827-12.152l.74 1.69s-17.36 10.134-51.567 12.786z" fill="#6c63ff" opacity=".3"/><path data-name="Path 1166" d="M96.019 129.414s28.954-1.585 50.83-12.152l.737 1.69s-17.36 10.131-51.567 12.786z" fill="#6c63ff" opacity=".3"/><path data-name="Path 1167" d="M299.601 226.76s-12.032-.726-10.615 7.707a2.05 2.05 0 001.07 2.166s.02-.626 1.232-.413a5.525 5.525 0 001.309.063 2.7 2.7 0 001.6-.66s3.384-1.4 4.7-6.924c0 0 .973-1.207.933-1.517l-2.029.854a3.636 3.636 0 01.148 2.681s-.065-2.627-.455-2.561c-.08 0-1.056.507-1.056.507s1.192 2.561.285 4.405c0 0 .342-3.145-.666-4.22l-1.423.834s1.395 2.635.45 4.787c0 0 .242-3.3-.751-4.585l-1.295 1.01s1.312 2.6.512 4.383c0 0-.105-3.842-.794-4.132a7.363 7.363 0 00-1.3 1.423s.9 1.884.339 2.88c0 0-.341-2.561-.62-2.561a8.455 8.455 0 00-1.246 2.846 6.154 6.154 0 01.973-3.019 3.415 3.415 0 00-1.73.9s.176-1.2 2.009-1.3a8 8 0 011.181-1.366 7.434 7.434 0 00-2.926.339s.973-1.138 3.261-.617l1.278-1.042a10.5 10.5 0 00-3.415.034s1.17-1 3.759-.285l1.392-.831a12.672 12.672 0 00-3.261-.285 5 5 0 013.671.057l.993-.447s-1.5-.285-1.935-.341-.464-.165-.464-.165a5.162 5.162 0 012.814.313 12.63 12.63 0 002.072-.918z" fill="#481a89"/><ellipse data-name="Ellipse 495" cx="8.515" cy="1.44" rx="8.515" ry="1.44" transform="translate(282.799 235.927)" fill="#6c63ff" opacity=".1"/><ellipse data-name="Ellipse 496" cx="29.028" cy="2.63" rx="29.028" ry="2.63" transform="translate(202.553 229.362)" fill="#6c63ff" opacity=".1"/><path data-name="Path 1168" d="M305.205 198.926s-6.782-.41-5.976 4.346a1.158 1.158 0 00.6 1.221s.014-.353.7-.233a3.167 3.167 0 00.737.034 1.519 1.519 0 00.9-.37s1.907-.788 2.65-3.9c0 0 .549-.68.526-.854l-1.138.487a2.063 2.063 0 01.083 1.514s-.037-1.483-.256-1.449c-.046 0-.595.285-.595.285a3.377 3.377 0 01.165 2.484s.193-1.773-.376-2.382l-.805.472a3.563 3.563 0 01.253 2.7 5.053 5.053 0 00-.424-2.584l-.729.569a3.478 3.478 0 01.285 2.47s-.06-2.166-.447-2.328a4.557 4.557 0 00-.737.794s.507 1.064.194 1.625c0 0-.194-1.443-.35-1.449a4.756 4.756 0 00-.7 1.608 3.482 3.482 0 01.549-1.708 1.908 1.908 0 00-.976.507s.1-.677 1.138-.734a4.539 4.539 0 01.666-.771 4.2 4.2 0 00-1.651.191 1.854 1.854 0 011.838-.347l.723-.589a5.951 5.951 0 00-1.927.02 2.324 2.324 0 012.12-.154l.785-.47a7.087 7.087 0 00-1.841-.157 2.811 2.811 0 012.069.031l.569-.25s-.854-.168-1.093-.194-.262-.094-.262-.094a2.936 2.936 0 011.588.176 6.89 6.89 0 001.145-.517z" fill="#481a89"/><ellipse data-name="Ellipse 497" cx="4.801" cy=".811" rx="4.801" ry=".811" transform="translate(295.737 204.094)" fill="#6c63ff" opacity=".1"/><path data-name="Path 1169" d="M265.17 203.049s-8.19-.5-7.223 5.245a1.4 1.4 0 00.726 1.474s0-.427.854-.285a3.741 3.741 0 00.891.043 1.838 1.838 0 001.087-.45s2.3-.951 3.2-4.713c0 0 .663-.82.635-1.033l-1.4.592a2.47 2.47 0 01.1 1.824s-.046-1.787-.31-1.747c-.054 0-.717.347-.717.347a4.093 4.093 0 01.2 3s.233-2.14-.453-2.874l-.973.569a4.3 4.3 0 01.3 3.258s.165-2.245-.509-3.13l-.882.689s.894 1.767.347 2.982c0 0-.068-2.615-.538-2.812a5.357 5.357 0 00-.888.959s.609 1.284.23 1.961c0 0-.233-1.742-.424-1.75a5.954 5.954 0 00-.854 1.944 4.2 4.2 0 01.663-2.055 2.306 2.306 0 00-1.175.612s.12-.817 1.366-.888a5.25 5.25 0 01.805-.928 5.045 5.045 0 00-1.992.228 2.233 2.233 0 012.217-.418l.871-.711a7.24 7.24 0 00-2.325.023 2.829 2.829 0 012.561-.182l.948-.569a8.614 8.614 0 00-2.223-.191 3.4 3.4 0 012.5.04l.677-.3s-1.019-.2-1.318-.231-.313-.114-.313-.114a3.518 3.518 0 011.915.211 8.779 8.779 0 001.424-.62z" fill="#481a89"/><ellipse data-name="Ellipse 498" cx="5.797" cy=".979" rx="5.797" ry=".979" transform="translate(253.732 209.293)" fill="#6c63ff" opacity=".1"/><ellipse data-name="Ellipse 499" cx="8.515" cy="1.44" rx="8.515" ry="1.44" transform="translate(7.038 231.636)" fill="#6c63ff" opacity=".1"/><path data-name="Path 1170" d="M9.835 226.386s4.855-.148 6.321-1.19 7.47-2.277 7.835-.618 7.3 8.316 1.816 8.361-12.741-.854-14.2-1.745-1.772-4.808-1.772-4.808z" fill="#a8a8a8"/><path data-name="Path 1171" d="M25.903 232.355c-5.484.046-12.741-.854-14.2-1.744-1.11-.677-1.554-3.111-1.708-4.232H9.83s.307 3.919 1.767 4.81 8.74 1.793 14.209 1.764c1.582-.014 2.129-.569 2.1-1.423-.221.501-.825.817-2.003.825z" opacity=".2"/><path data-name="Rectangle 109" transform="rotate(-72 144.168 -131.565)" fill="url(#g)" d="M0 0h48.57v86.918H0z"/><path data-name="Rectangle 110" fill="#f6f7f9" d="M225.412 46.061L240.213.507l81.517 26.487-14.801 45.554z"/><g data-name="Group 29"><circle data-name="Ellipse 500" cx="8.925" cy="8.925" r="8.925" fill="#6c63ff" transform="translate(240.069 16.795)" opacity=".2"/></g><g data-name="Group 30"><path data-name="Rectangle 111" fill="#6c63ff" d="M270.346 24.114l.756-2.325 36.977 12.015-.755 2.325z" opacity=".2"/></g><g data-name="Group 31"><path data-name="Rectangle 112" fill="#6c63ff" d="M268.418 30.041l.756-2.325 18.836 6.12-.756 2.325z" opacity=".2"/></g><g data-name="Group 32"><path data-name="Rectangle 113" fill="#6c63ff" d="M266.488 35.972l.756-2.325 30.466 9.899-.756 2.325z" opacity=".2"/></g><g data-name="Group 33"><path data-name="Rectangle 114" fill="#6c63ff" d="M264.561 41.9l.756-2.325 36.977 12.015-.755 2.325z" opacity=".2"/></g><g data-name="Group 34"><path data-name="Rectangle 115" fill="#481a89" d="M287.818 61.326l1.46-4.495 10.233 3.324-1.46 4.496z" opacity=".5"/></g><path data-name="Path 1172" d="M820.141 451.85a2.57 2.57 0 00-.028-.285 1.447 1.447 0 00-.048-.285 11.627 11.627 0 00-.122-.569c-.023-.088-.046-.179-.071-.265a7.217 7.217 0 00-1.423-2.752c-.037-.046-.077-.088-.114-.131a6.743 6.743 0 00-.664-.635c-.137-.111-.265-.2-.376-.285a2.335 2.335 0 00-.23-.148 1.265 1.265 0 00-.535-.174l-1.181-.117-1.614-.159-5.768-2.24-.228.08a13.082 13.082 0 01-.427-1.423 1.275 1.275 0 00.455-.333 1.039 1.039 0 00.313-.4c.145-.336-.134-1.05-.077-1.46a6.887 6.887 0 01.711-1.887 8.753 8.753 0 00.953-4.067 4.587 4.587 0 00-1.9-3.609c-.612-.407-1.332-.623-1.969-.993-.5-.285-.931-.666-1.4-.99a8.065 8.065 0 00-7.946-.569 38.77 38.77 0 00-3.35 2.18 5.654 5.654 0 01-3.785 1.042.925.925 0 00-.04.165l-.111-.014c-.228.62.33 1.235.854 1.659a5.764 5.764 0 003.355 1.636 3.525 3.525 0 011.46.108 1.336 1.336 0 01.285.171 6.341 6.341 0 001.992 6.321l-2.945-1.059s-.122.063-.313.182l-4.087-2.721s-8.193-2.971-10.47 1.656 9.867 2.24 9.867 2.24l2.6 1.423a2.365 2.365 0 00.285 1.56l7.083 4.377a37.415 37.415 0 01-4.2 1.138c-.606 0-2.277.6-3.338 2.985s-4.858 14.036-8.2 15.977-12.14 14.932-12.14 14.932l.04.1c-.156.043-.31.085-.461.137a9.328 9.328 0 00-4.573 3.449 1.463 1.463 0 001.024 2.308 6.389 6.389 0 006.286-2.371c.06-.077.114-.154.165-.23a1.215 1.215 0 00.854.04l4.249-3.435s-3.324 3.273-1.375 6.261l-.148.208a47.5 47.5 0 00-7.115 15.487s-1.821 1.343-1.972 6.719a102.863 102.863 0 01-1.975 14.036s-1.212 10.3-.455 13.438c0 0 .088.125.25.316-.057.068-.12.142-.188.216a3.685 3.685 0 01-3.25 1.423c-2.123-.45-2.123 3.284.911 3.583a80.862 80.862 0 018.287 1.662 1.744 1.744 0 002.163-1.861 15.762 15.762 0 00-.911-4.109 8.433 8.433 0 00-.094-.208c.088-.085.179-.171.267-.262 0 0 0-6.571 1.064-8.361 0 0 2.883-13.589 2.729-17.024-.117-2.687 7.482-13.151 10.789-17.57l-.028-.168c.854-1.138 1.383-1.821 1.383-1.821l2.558 16.278a23.284 23.284 0 002.732 5.524s6.525 12.394 7.285 16.275a12.241 12.241 0 002.3 5.356l-.2.188a3.322 3.322 0 01-2.863 1.027c-2.123-.45-2.123 3.284.911 3.583a81.529 81.529 0 018.284 1.665 1.747 1.747 0 002.166-1.864 13.463 13.463 0 00-1.167-4.627 3.2 3.2 0 00-.174-.285 1.6 1.6 0 00.6-.424s-3.947-9.408-3.947-11.953c0 0-1.668-9.7-7.283-13.287 0 0 .529-12.14 2.129-18.9l.12-.489a45.02 45.02 0 004.428-.922l.151-4.479.76 3.583 8.5-5.225s-.074-.942-.216-2.385c-.074-.723-.162-1.571-.268-2.49a177.92 177.92 0 00-.285-2.311c-.029-.2-.054-.4-.083-.6a94.9 94.9 0 00-.364-2.416q-.077-.45-.154-.888c-.071-.39-.142-.771-.216-1.138-.037-.185-.077-.37-.114-.549s-.08-.359-.12-.532l-.12-.509c-.023-.083-.043-.165-.063-.245-.043-.162-.085-.322-.128-.475a8.539 8.539 0 01-.307-1.958v-.788a5.646 5.646 0 01.077-.785c.017-.128.04-.259.065-.387a8.687 8.687 0 01.43-1.525c.094-.248.2-.492.319-.734.285-.569.569-1.175.871-1.821.154-.322.307-.652.461-.987s.31-.677.467-1.025a44.938 44.938 0 003.324-9.371c.04-.253.071-.492.085-.717a4.572 4.572 0 00.02-.613z" transform="translate(-554.064 -314.406)" fill="url(#h)"/><path data-name="Path 1173" d="M240.729 128.511l-5.006-3.384s-7.948-2.945-10.157 1.619 9.568 2.208 9.568 2.208l5.006 2.795z" fill="#ae6e79"/><path data-name="Rectangle 116" fill="#f9fafb" d="M186.42 156.586l25.903-40.267 62.685 40.324-25.903 40.267z"/><path data-name="Rectangle 117" fill="#b7b6cc" d="M195.711 153.776l7.26-11.433 2.69 1.708-7.26 11.433z"/><path data-name="Rectangle 118" fill="#b7b6cc" d="M204.31 156.093l15.946-25.109 2.467 1.567-15.946 25.109z"/><path data-name="Rectangle 119" fill="#b7b6cc" d="M209.58 159.438l15.946-25.109 2.467 1.567-15.946 25.109z"/><path data-name="Rectangle 120" fill="#b7b6cc" d="M214.849 162.788l15.946-25.109 2.467 1.567-15.946 25.109z"/><path data-name="Rectangle 121" fill="#b7b6cc" d="M220.3 167.643l16.073-24.985 2.454 1.579-16.072 24.985z"/><path data-name="Rectangle 122" fill="#fff" d="M225.386 169.483l15.946-25.109 2.467 1.567-15.946 25.109z"/><path data-name="Rectangle 123" fill="#fff" d="M230.656 172.828l15.946-25.109 2.467 1.567-15.946 25.109z"/><path data-name="Rectangle 124" fill="#b7b6cc" d="M252.78 158.563l4.13-6.502 6.502 4.13-4.13 6.501z"/><path data-name="Path 1174" d="M255.537 231.713a78.152 78.152 0 00-8.037-1.639c-2.945-.285-2.945-3.984-.882-3.535a3.188 3.188 0 002.775-1.01 6.5 6.5 0 00.569-.623 1.707 1.707 0 01.953-.583c1.1-.239 3.415-.6 4.812.156a2.08 2.08 0 01.763.837 13.666 13.666 0 011.138 4.553 1.707 1.707 0 01-2.092 1.844z" fill="#bebed0"/><path data-name="Path 1175" d="M218.293 233.183a77.937 77.937 0 00-8.034-1.639c-2.945-.285-2.945-3.984-.885-3.532a3.532 3.532 0 003.15-1.392c.08-.085.151-.168.211-.245a1.708 1.708 0 01.951-.569c1.1-.242 3.415-.606 4.815.157a2.6 2.6 0 011.01 1.346 15.934 15.934 0 01.882 4.05 1.707 1.707 0 01-2.1 1.824z" fill="#bebed0"/><path data-name="Path 1176" d="M219.511 227.298c-3.515 3.623-6.528-.068-6.987-.677.08-.085.151-.168.211-.245a1.708 1.708 0 01.951-.569c1.1-.242 3.415-.606 4.815.157a2.457 2.457 0 011.01 1.334z" opacity=".1"/><path data-name="Path 1177" d="M256.504 225.315c-1.523 1.039-6.648.783-6.648.783a4.812 4.812 0 01-.464-.569 6.5 6.5 0 00.569-.623 1.707 1.707 0 01.953-.583c1.1-.239 3.415-.6 4.812.156a2.08 2.08 0 01.778.836z" opacity=".1"/><path data-name="Path 1178" d="M256.774 224.627c-1.033 1.326-6.918 1.03-6.918 1.03a11.282 11.282 0 01-2.5-5.592c-.737-3.825-7.066-16.045-7.066-16.045a23.143 23.143 0 01-2.649-5.447l-2.5-16.045s-12.069 15.9-11.921 19.283-2.652 16.79-2.652 16.79c-1.03 1.767-1.03 8.253-1.03 8.253-3.825 3.984-7.063-.737-7.063-.737-.737-3.091.441-13.247.441-13.247a102.977 102.977 0 001.912-13.836c.145-5.3 1.915-6.622 1.915-6.622a47.207 47.207 0 016.913-15.271c.888-1.272 1.477-1.952 1.477-1.952l23.845 2.8a15.014 15.014 0 00-1.031 3.156c-1.551 6.659-2.066 18.626-2.066 18.626 5.447 3.532 7.066 13.091 7.066 13.091 0 2.49 3.827 11.765 3.827 11.765z" fill="#5c5c8e"/><g data-name="Group 35" opacity=".05"><path data-name="Path 1179" d="M233.822 184.489l-.307-1.961s-12.069 15.9-11.921 19.283-2.649 16.79-2.649 16.79c-1.033 1.767-1.033 8.253-1.033 8.253a5.031 5.031 0 01-2.3 1.477c1.158.3 2.561.08 4.07-1.477 0 0 0-6.477 1.03-8.253 0 0 2.8-13.4 2.649-16.79-.117-2.649 7.251-12.968 10.461-17.322z"/><path data-name="Path 1180" d="M253.091 212.85s-1.619-9.568-7.063-13.091c0 0 .515-11.967 2.063-18.626a15 15 0 011.027-3.159l-23.845-2.791s-.057.063-.159.188l22.237 2.61a15.015 15.015 0 00-1.024 3.159c-1.551 6.659-2.066 18.626-2.066 18.626 5.447 3.532 7.066 13.091 7.066 13.091 0 2.5 3.828 11.776 3.828 11.776-.609.78-2.9 1-4.687 1.047 1.423.037 5.6.051 6.452-1.047-.001-.006-3.829-9.281-3.829-11.783z"/></g><path data-name="Path 1181" d="M220.709 173.109a5.377 5.377 0 01-.7 1.218 6.153 6.153 0 01-6.1 2.336 1.449 1.449 0 01-1-2.277 9.07 9.07 0 014.437-3.415 8.1 8.1 0 011.881-.381z" fill="#ae6e79"/><path data-name="Path 1182" d="M251.796 131.943l-11.8-4.317s-3.387 1.767-2.06 4.269l11.494 7.214z" fill="#42383c"/><path data-name="Path 1183" d="M251.843 131.989l-11.807-4.317s-3.387 1.764-2.06 4.269l11.48 7.211z" fill="#d9782c" opacity=".63"/><path data-name="Path 1184" d="M252.21 124.826s-.148 6.918 2.945 9.275-8.981 3.68-8.981 3.68 1.915-7.066 0-10.746 6.036-2.209 6.036-2.209z" fill="#ae6e79"/><path data-name="Path 1185" d="M248.971 177.966a15.012 15.012 0 00-1.025 3.159c-14.229 2.174-24.147-3.748-24.147-3.748a4.274 4.274 0 01-.151-.256c.888-1.272 1.477-1.952 1.477-1.952z" opacity=".1"/><path data-name="Path 1186" d="M220.709 173.108a5.377 5.377 0 01-.7 1.218c-1.363-.228-2.453-2.846-2.655-3.341a8.1 8.1 0 011.881-.381z" opacity=".1"/><path data-name="Path 1187" d="M253.387 131.01l-5.3 1.912-2.208 2.945s-4.553 1.471-5.151 1.471-2.208.589-3.239 2.943-4.71 13.842-7.948 15.752-11.776 14.719-11.776 14.719 1.471 3.984 3.239 3.387l4.121-3.387s-3.239 3.239-1.326 6.184c0 0 12.072 7.211 28.706 2.795l.145-4.414.737 3.532 8.253-5.151s-.737-9.5-2.066-14.337a8.742 8.742 0 01.569-6.093c2.137-4.454 5.436-11.893 5.034-14.6a6.775 6.775 0 00-2.971-5 1.228 1.228 0 00-.518-.174l-2.7-.267z" fill="#ffa25a"/><path data-name="Path 1188" d="M244.335 145.802s-2.945 13.688-6.184 15.9-11.921 9.275-12.217 10.453" fill="rgba(199,91,8,0.73)" opacity=".05"/><path data-name="Path 1189" d="M243.011 145.361s-2.943 13.688-6.181 15.9-11.924 9.275-12.217 10.45" fill="#d9782c"/><path data-name="Path 1190" d="M245.806 135.794s10.157-3.387 13.091-2.5" opacity=".1"/><g data-name="Group 36" opacity=".05"><path data-name="Path 1191" d="M260.13 153.27c2.137-4.454 5.436-11.893 5.034-14.6a6.775 6.775 0 00-2.971-5 1.229 1.229 0 00-.518-.174l-1.138-.114a1.138 1.138 0 01.341.139 6.791 6.791 0 012.968 5.006c.4 2.709-2.9 10.151-5.031 14.6a8.737 8.737 0 00-.569 6.09c1.332 4.838 2.069 14.337 2.069 14.337l-7.1 4.437.179.854 8.253-5.151s-.737-9.5-2.066-14.337a8.742 8.742 0 01.549-6.087z"/><path data-name="Path 1192" d="M257.66 133.07l1.275.128-5.544-2.188-.5.179z"/></g><path data-name="Path 1193" d="M243.009 159.639s4.553-2.5 6.036-1.912 6.918-.148 6.918-.148" opacity=".05"/><path data-name="Path 1194" d="M251.703 126.667c-.168-1.477.515-1.252.515-1.252s-7.948-1.471-6.036 2.208a8.429 8.429 0 01.808 3.236h.077c2.209.003 3.498-2.468 4.636-4.192z" opacity=".05"/><circle data-name="Ellipse 501" cx="6.329" cy="6.329" r="6.329" transform="translate(240.729 117.614)" fill="#ae6e79"/><path data-name="Path 1195" d="M253.98 125.816a8.823 8.823 0 00.925-4.01 4.547 4.547 0 00-1.838-3.56c-.592-.4-1.292-.612-1.91-.976-.481-.285-.9-.657-1.363-.976a7.715 7.715 0 00-7.707-.569 35.415 35.415 0 00-3.247 2.151 5.441 5.441 0 01-3.671 1.027c-.222.612.322 1.215.82 1.636a5.54 5.54 0 003.256 1.611 3.407 3.407 0 011.423.108 2.041 2.041 0 01.723.672 13.26 13.26 0 011.5 2.547 2.111 2.111 0 00.672.99c.569.364 1.306.06 1.992.034a4.1 4.1 0 012.766 1.323 8.444 8.444 0 002.493 1.887c.731.285 2.194.268 2.561-.606.139-.33-.131-1.036-.074-1.44a6.967 6.967 0 01.679-1.849z" opacity=".1"/><path data-name="Path 1196" d="M254.11 125.666a8.783 8.783 0 00.925-4.007 4.553 4.553 0 00-1.836-3.56c-.595-.4-1.295-.615-1.91-.979-.481-.285-.905-.655-1.363-.976a7.715 7.715 0 00-7.707-.569 35.373 35.373 0 00-3.247 2.149 5.425 5.425 0 01-3.671 1.027c-.222.615.319 1.218.82 1.636a5.56 5.56 0 003.256 1.614 3.362 3.362 0 011.423.108 1.992 1.992 0 01.723.672 13.092 13.092 0 011.5 2.544 2.118 2.118 0 00.674.99c.569.364 1.306.06 1.992.034a4.1 4.1 0 012.763 1.326 8.374 8.374 0 002.5 1.884c.731.285 2.194.268 2.561-.606.142-.33-.128-1.036-.071-1.44a6.961 6.961 0 01.668-1.847z" fill="#42383c"/><path data-name="Path 1197" d="M208.293 219.131a2.934 2.934 0 01-1.884.666l-127.143-.541a3.913 3.913 0 01-.874-2.98l12.562-102.783 7.877-.085a2.977 2.977 0 012.9 2.2l1.471 5.43a2.977 2.977 0 002.943 2.2l31.438-.754a2.977 2.977 0 002.906-2.977v-3.6a2.977 2.977 0 012.943-2.977l43.564-.47a2.977 2.977 0 012.951 2.416l19.266 100.743.125.649a2.96 2.96 0 01-1.047 2.866z" opacity=".1"/><path data-name="Path 1198" d="M185.571 113.884l-43.564.47a2.977 2.977 0 00-2.945 2.974v3.6a2.977 2.977 0 01-2.9 2.974l-31.435.754a2.974 2.974 0 01-2.945-2.2l-1.477-5.427a2.974 2.974 0 00-2.906-2.2l-41.99.452a2.974 2.974 0 00-2.9 3.472l16.889 99.431a2.977 2.977 0 002.923 2.479l132.656.569a2.977 2.977 0 002.934-3.535L188.525 116.3a2.974 2.974 0 00-2.954-2.416z" fill="#e6e8ee"/><path data-name="Path 1199" d="M246.928 45.8l-.228 2.533.165 4.479-.481 7.556s-.068 3.31-1.938 4.861l-4.773 7.328-.028.014-1.8.877-2.741.285-1.423-3.446.942-3.785.524-.706.145-.159a16.472 16.472 0 014.511-3.609 2.469 2.469 0 00.959-2.191c-.2-1.338 1.571-8.446 1.571-8.446s1.138-4.7.891-5.16-.046-10.865 3.882-11.025-.178 10.594-.178 10.594z" fill="#f6bac2"/><ellipse data-name="Ellipse 502" cx="4.613" cy=".635" rx="4.613" ry=".635" transform="translate(38.481 198.826)" fill="#6c63ff" opacity=".1"/><ellipse data-name="Ellipse 503" cx="4.613" cy=".635" rx="4.613" ry=".635" transform="translate(20.812 200.616)" fill="#6c63ff" opacity=".1"/><ellipse data-name="Ellipse 504" cx="4.613" cy=".635" rx="4.613" ry=".635" transform="translate(0 198.191)" fill="#6c63ff" opacity=".1"/><ellipse data-name="Ellipse 505" cx="3.278" cy=".45" rx="3.278" ry=".45" transform="translate(29.218 205.904)" fill="#6c63ff" opacity=".1"/><ellipse data-name="Ellipse 506" cx="3.278" cy=".45" rx="3.278" ry=".45" transform="translate(10.88 205.454)" fill="#6c63ff" opacity=".1"/><path data-name="Path 1200" d="M25.325 201.111s6.469-21.207-1.013-29.7c-5.6-6.355-11.953-5.595-14.8-4.81a5.262 5.262 0 00-3.392 2.82c-1 2.146-.817 5.629 6.207 9.7 11.756 6.807 12.488 16.144 12.488 16.144z" fill="#481a89"/><path data-name="Path 1201" d="M10.53 169.608s19.067 5.976 14.8 31.5" fill="none" stroke="#565987" stroke-miterlimit="10"/><path data-name="Path 1202" d="M21.668 171.745s-2.627 1.77-1.79 4.431" fill="none" stroke="#565987" stroke-miterlimit="10"/><path data-name="Path 1203" d="M12.442 173.321a3.311 3.311 0 013.56-.731" fill="none" stroke="#565987" stroke-miterlimit="10"/><path data-name="Path 1204" d="M19.981 181.535s2.82-1.423 3.549.361" fill="none" stroke="#565987" stroke-miterlimit="10"/><path data-name="Path 1205" d="M26.955 184.514s-2.117-.168-2.154.854" fill="none" stroke="#565987" stroke-miterlimit="10"/><path data-name="Path 1206" d="M25.587 201.279s-7.578-15.413-9.659-15.083c-.988.162-1.443 1.138-1.651 2.112a6.2 6.2 0 00.413 3.751 16.608 16.608 0 0010.897 9.22z" fill="#481a89"/><path data-name="Path 1207" d="M15.985 189.127s7.951 11.531 9.488 12.038" fill="none" stroke="#565987" stroke-miterlimit="10"/><path data-name="Line 1" fill="none" stroke="#565987" stroke-miterlimit="10" d="M15.254 190.929h1.855"/><path data-name="Line 2" fill="none" stroke="#565987" stroke-miterlimit="10" d="M17.476 195.146l2.911.125"/><path data-name="Line 3" fill="none" stroke="#565987" stroke-miterlimit="10" d="M19.249 191.771l-.316 1.517"/><path data-name="Line 4" fill="none" stroke="#565987" stroke-miterlimit="10" d="M22.343 196.384l-.057 1.377"/><path data-name="Path 1208" d="M25.362 201.279s7.576-15.413 9.656-15.083c.99.162 1.446 1.138 1.651 2.112a6.2 6.2 0 01-.413 3.751 16.616 16.616 0 01-10.894 9.22z" fill="#481a89"/><path data-name="Path 1209" d="M34.964 189.127s-7.968 11.531-9.491 12.038" fill="none" stroke="#565987" stroke-miterlimit="10"/><path data-name="Line 5" fill="none" stroke="#565987" stroke-miterlimit="10" d="M35.695 190.929H33.84"/><path data-name="Line 6" fill="none" stroke="#565987" stroke-miterlimit="10" d="M33.472 195.146l-2.911.125"/><path data-name="Line 7" fill="none" stroke="#565987" stroke-miterlimit="10" d="M31.7 191.771l.316 1.517"/><path data-name="Line 8" fill="none" stroke="#565987" stroke-miterlimit="10" d="M28.606 196.384l.057 1.377"/><path data-name="Path 1210" d="M12.351 204.879a1.309 1.309 0 01-.43-.652.569.569 0 01.3-.663.836.836 0 01.8.285 1.018 1.018 0 00.771.361 1.178 1.178 0 01-.364-1.1.45.45 0 01.1-.225c.154-.165.433-.094.618.037a2.336 2.336 0 01.751 1.921 3.672 3.672 0 000-.791.811.811 0 01.319-.692.888.888 0 01.452-.108.939.939 0 01.737.211.731.731 0 01-.028.9 2.9 2.9 0 01-.763.609 1.708 1.708 0 00-.544.521.38.38 0 00-.04.091h-1.658a4.594 4.594 0 01-1.021-.705z" fill="#6c63ff"/><path data-name="Path 1211" d="M41.222 198.67a1.289 1.289 0 01-.43-.649.569.569 0 01.3-.663.836.836 0 01.8.285 1.049 1.049 0 00.777.373 1.178 1.178 0 01-.367-1.1.452.452 0 01.1-.225c.154-.165.433-.094.618.034a2.3 2.3 0 01.751 1.924 3.7 3.7 0 000-.794.814.814 0 01.285-.7.908.908 0 01.452-.105.95.95 0 01.737.208.731.731 0 01-.031.9 2.844 2.844 0 01-.76.609 1.69 1.69 0 00-.544.518.466.466 0 00-.04.094h-1.619a4.556 4.556 0 01-1.027-.711z" fill="#6c63ff"/><path data-name="Path 1212" d="M31.6 204.879a1.335 1.335 0 01-.433-.652.569.569 0 01.3-.663.836.836 0 01.8.285 1.058 1.058 0 00.777.376 1.187 1.187 0 01-.367-1.1.452.452 0 01.1-.225c.154-.165.433-.094.618.037a2.3 2.3 0 01.751 1.921 3.675 3.675 0 000-.791.814.814 0 01.3-.7.88.88 0 01.452-.108.942.942 0 01.737.211.728.728 0 01-.031.9 2.888 2.888 0 01-.76.609 1.707 1.707 0 00-.544.521.381.381 0 00-.04.091h-1.651a4.642 4.642 0 01-1.009-.712z" fill="#6c63ff"/><path data-name="Path 1213" d="M4.314 192.329s-.618.808.285 2.029 1.648 2.251 1.346 3.011c0 0-1.363-2.277-2.473-2.3s-.381-1.39.842-2.74z" fill="#6c63ff"/><path data-name="Path 1214" d="M4.308 192.329a1.019 1.019 0 00-.125.253c-1.081 1.272-1.659 2.459-.618 2.49.968.028 2.132 1.759 2.408 2.2a1.016 1.016 0 01-.031.1s-1.363-2.277-2.473-2.3-.379-1.393.839-2.743z" opacity=".1"/><path data-name="Path 1215" d="M3.165 193.359c0 .285.031.515.071.515s.071-.231.071-.515-.04-.151-.08-.151-.062-.134-.062.151z" fill="#ffd037"/><path data-name="Path 1216" d="M2.769 193.701c.25.137.467.216.487.182s-.168-.171-.418-.307-.151-.037-.171 0-.149-.012.102.125z" fill="#ffd037"/><path data-name="Path 1217" d="M7.576 192.329s.62.808-.285 2.029-1.648 2.251-1.346 3.011c0 0 1.363-2.277 2.473-2.3s.379-1.39-.842-2.74z" fill="#6c63ff"/><path data-name="Path 1218" d="M7.576 192.329a1.079 1.079 0 01.128.253c1.081 1.272 1.659 2.459.618 2.49-.968.028-2.132 1.759-2.41 2.2a.587.587 0 00.034.1s1.363-2.277 2.473-2.3.382-1.393-.843-2.743z" opacity=".1"/><path data-name="Path 1219" d="M8.725 193.359c0 .285-.031.515-.071.515s-.071-.231-.071-.515.04-.151.08-.151.062-.134.062.151z" fill="#ffd037"/><path data-name="Path 1220" d="M9.121 193.701c-.25.137-.47.216-.487.182s.168-.171.418-.307.151-.037.168 0 .148-.012-.099.125z" fill="#ffd037"/><path data-name="Path 1221" d="M8.529 197.264a6.351 6.351 0 01-2.248-.424c-.521-.37-2.658-.814-2.789-.219s-2.6 2.96-.646 2.974a16.62 16.62 0 005.054-.62c.521-.317.629-1.711.629-1.711z" fill="#a8a8a8"/><path data-name="Path 1222" d="M2.811 199.387a16.424 16.424 0 005.054-.62c.4-.239.552-1.1.606-1.505h.057s-.108 1.394-.629 1.707a16.605 16.605 0 01-5.054.62c-.569 0-.757-.2-.746-.5.082.184.308.284.712.298z" opacity=".2"/><circle data-name="Ellipse 507" cx="6.156" cy="6.156" r="6.156" transform="translate(3.503 29.906)" fill="#6c63ff" opacity=".1"/><circle data-name="Ellipse 508" cx="6.156" cy="6.156" r="6.156" transform="translate(299.496 79.096)" fill="#6c63ff" opacity=".1"/><circle data-name="Ellipse 509" cx="6.156" cy="6.156" r="6.156" transform="translate(188.844 10.358)" fill="#6c63ff" opacity=".1"/><circle data-name="Ellipse 510" cx="10.316" cy="10.316" r="10.316" transform="translate(11.654 59.704)" fill="#6c63ff" opacity=".1"/><path data-name="Path 1223" d="M122.428 167.519l-.364-.364a.39.39 0 010-.569l3.2-3.2a.39.39 0 01.569 0l3.2 3.2a.4.4 0 010 .569l-.364.364a.4.4 0 01-.569 0l-1.89-1.992v4.72a.393.393 0 01-.393.4h-.526a.4.4 0 01-.4-.4v-4.721l-1.89 1.992a.4.4 0 01-.569 0z" fill="#f6f7f9"/><path data-name="Path 1224" d="M125.538 160.481a6.486 6.486 0 11-6.486 6.486 6.486 6.486 0 016.486-6.486m0-.854a7.339 7.339 0 107.339 7.339 7.339 7.339 0 00-7.339-7.339z" fill="#f6f7f9"/></g></svg>