<svg xmlns="http://www.w3.org/2000/svg" xmlns:xlink="http://www.w3.org/1999/xlink" width="322.413" height="238.805" viewBox="0 0 322.413 238.805">
  <defs>
    <linearGradient id="linear-gradient" x1="0.5" y1="1" x2="0.5" gradientUnits="objectBoundingBox">
      <stop offset="0" stop-color="gray" stop-opacity="0.251"/>
      <stop offset="0.54" stop-color="gray" stop-opacity="0.122"/>
      <stop offset="1" stop-color="gray" stop-opacity="0.102"/>
    </linearGradient>
    <linearGradient id="linear-gradient-2" x1="0.5" y1="1" x2="0.5" y2="0" xlink:href="#linear-gradient"/>
    <linearGradient id="linear-gradient-3" x1="-0.211" y1="3.614" x2="-0.211" y2="0.343" xlink:href="#linear-gradient"/>
    <linearGradient id="linear-gradient-4" x1="-0.036" y1="4.542" x2="-0.036" y2="1.284" xlink:href="#linear-gradient"/>
    <linearGradient id="linear-gradient-5" x1="-0.017" y1="4.446" x2="-0.017" y2="1.187" xlink:href="#linear-gradient"/>
    <linearGradient id="linear-gradient-6" x1="-1.04" y1="1.715" x2="-1.04" y2="0.715" xlink:href="#linear-gradient"/>
    <linearGradient id="linear-gradient-7" x1="0.551" y1="0.784" x2="0.551" y2="0.225" xlink:href="#linear-gradient"/>
    <linearGradient id="linear-gradient-8" x1="0.5" y1="1" x2="0.5" y2="0" xlink:href="#linear-gradient"/>
  </defs>
  <g id="undraw_upload_87y9" transform="translate(0 -0.002)">
    <path id="Path_1103" data-name="Path 1103" d="M236.564,67.953c-10.578-4.3-21.756-7.9-33.168-7.442a49.317,49.317,0,0,0-40.772,25.57c-6.693,12.553-7.519,27.269-10.4,41.2-3.552,17.166-10.353,33.478-17.621,49.432-3.9,8.557-8.022,17.323-8.663,26.717-.891,13.04,5.344,26.037,15.12,34.719S163.824,251.4,176.85,252.4c6.935.532,14.181.04,20.342-3.187,6.517-3.415,11.267-9.588,17.809-12.951,6.064-3.13,13.156-3.557,19.964-3.15a89.4,89.4,0,0,1,26.065,5.538c9.514,3.574,18.361,8.748,27.855,12.371s20.1,5.646,29.8,2.621c9.107-2.846,16.318-9.733,22.815-16.719a292.594,292.594,0,0,0,29.084-36.8c5.86-8.777,11.312-18.037,13.9-28.268a56.479,56.479,0,0,0-16.987-54.982c-12.522-11.065-29.338-15.868-45.8-18.783-15.006-2.658-32.357-2.823-46.171-9.75C262.364,81.724,250.378,73.57,236.564,67.953Z" transform="translate(-99.583 -51.921)" fill="#6c63ff" opacity="0.1"/>
    <path id="Path_1104" data-name="Path 1104" d="M778.9,137.551c-4.064.162-4.269,10.655-4.016,11.113s-.922,5.194-.922,5.194-1.844,7.18-1.631,8.515a2.487,2.487,0,0,1-.993,2.208c-1.8.711-4.067,3.005-4.667,3.634l-.151.162a13.125,13.125,0,0,0-2.055,1.588c-.307.45-1.138.091-1.138.091a22.191,22.191,0,0,0-2.669-.137c-.211.063-.541-.324-.729-.569-.088-.117-.145-.2-.145-.2l-.071-2.117a1.735,1.735,0,0,0-.285-.176c.048-.239.108-.487.182-.74a6.34,6.34,0,0,0,2.587-2.322c.068-.108.131-.219.191-.33a.854.854,0,0,0,.538.151,1.067,1.067,0,0,0,.25-.023,2.023,2.023,0,0,0,.729-.367,3.9,3.9,0,0,0,1.355-1.588,2.577,2.577,0,0,0,.128-.378c-.043.071-.088.142-.134.211a2.188,2.188,0,0,0-.151-1.847,6.065,6.065,0,0,1-.711-1.047c-.239-.686.213-1.394.492-2.066a3.475,3.475,0,0,0,.253-1.947,2.487,2.487,0,0,0-1.053-1.642c-1.118-.726-2.635-.327-3.93-.677a10.638,10.638,0,0,1-1.352-.544,10.246,10.246,0,0,0-2.069-.643,2.024,2.024,0,0,0-1.992.4,4.087,4.087,0,0,0-.324.549,2.035,2.035,0,0,1-1.272.914,4.77,4.77,0,0,1-.783.083.757.757,0,0,0,0-.324c-.33-1.081.615-1.884,1.844-2.368a30.721,30.721,0,0,0,6.449-5.04c.544-.874,4.348-3.614,4.348-3.614a11.947,11.947,0,0,0,7.559-7.479c1.867-5.868-8.93,4.1-10.017,4.4a11.077,11.077,0,0,0-2.644,1.423l-6.924,4a25.076,25.076,0,0,0-3.734,2.578,12.537,12.537,0,0,0-2.738,3.91s-.663,1.081-1.631,2.647a7.206,7.206,0,0,1-2.112,2.245l.031-.057c-.077.094-2.459,3.1-2.669,4.417s-1.181,6.673-1.181,6.673-.854,4.209-1.44,5.037a14.434,14.434,0,0,1-.757,2.741c-.282.324-1.423,3.748-1.229,4.1,0,0-1.087,2.371-.9,3.267l-1.961,4.7a10.813,10.813,0,0,0-.993,3.68c.034.657.063,1.423.083,2.049v.285h0v.285c-.105.176-.376.626-.657,1.17a6.089,6.089,0,0,0-.808,2.388c.046,1.07.048,3.683-.444,4.642l-.145-.057a1.992,1.992,0,0,0-.285.945l.034.017c0,.083-.026.168-.034.259-.12,1.09.054,2.607-.219,2.94-.378.461-.191,10.678-.191,10.678s-.615,6.395.615,10.447l-.094,3.173a29.558,29.558,0,0,0,.094,3.415,33.286,33.286,0,0,1,.191,3.452l.709,5.063s-.948,7.823-.142,9.756a10.632,10.632,0,0,1,.854,3.361,5.227,5.227,0,0,0,1.3.5v.285l-.185,4.758v.262s-.023.125-.04.333h0v.117a.139.139,0,0,0,0,.034v.1a.7.7,0,0,0,0,.077.554.554,0,0,1,0,.068v.43h0v.415a.822.822,0,0,0,.023.142.145.145,0,0,0,0,.034.729.729,0,0,0,.031.157h0a.6.6,0,0,0,.037.154.037.037,0,0,1,0,.017h0a.28.28,0,0,0,.023.08.145.145,0,0,0,0,.037.463.463,0,0,0,.028.1v.023c.029.08.057.159.091.239a.1.1,0,0,0,0,.026.244.244,0,0,0,.04.088l.017.04.037.077.023.043.04.071.026.043c0,.023.026.046.04.068a.53.53,0,0,1,.028.046l.043.065.031.043.046.065.034.043.051.063.034.04.06.068.031.034.1.094a.146.146,0,0,0,.031.028.78.78,0,0,0,.071.065l.046.037.063.051.054.04.063.046.06.04.063.04.065.037.065.04.068.034.071.034.071.034.071.031.077.031.077.028.08.028.085.026.134.04.111.028.088.017.091.02h.1l.094.014h1.2l.154-.014h.094l.259-.028s3.224.481,3.33-.794a1.022,1.022,0,0,1,.014-.2v-.162a.424.424,0,0,1,0-.06V261.47c-.02-.632-.051-1.218-.071-1.545a2.073,2.073,0,0,0-.017-.285s-1.1-1.656-.919-2.277a16.38,16.38,0,0,0,.139-2.726s-.427-1.01-.714-1.9c-.023-.068-.043-.137-.063-.2a10.5,10.5,0,0,0,.672-.854,10.814,10.814,0,0,0-.8-6.488.4.4,0,0,1-.174-.333.139.139,0,0,1,0-.034l.549-6.719-.333-3.91a10.766,10.766,0,0,1,.285-3.822l1.039-10.123,1.474-5.888s.472-.231.854.877,1.32,6.119,1.32,6.119l2.277,8.284a16.443,16.443,0,0,0,.709,3.361,6.411,6.411,0,0,1,.333,2.254,5.824,5.824,0,0,1,.615,2.117,9.158,9.158,0,0,0,.233,2.991,40.549,40.549,0,0,1,.333,4.838,9.773,9.773,0,0,0,.094,4.189,14.75,14.75,0,0,1,.236,4.787,3.268,3.268,0,0,0,.194.268c-.023.063-.048.125-.071.182-.148.384-.265.655-.265.655a16.78,16.78,0,0,0,.142,2.726c.176.62-.922,2.277-.922,2.277s0,.1-.017.285c-.02.327-.051.911-.071,1.545v1.622a.363.363,0,0,0,0,.054v.165a1.05,1.05,0,0,0,.014.2c.108,1.275,3.332.794,3.332.794l.259.031h1.44l.1-.017.094-.014.091-.02.091-.017.111-.028.134-.04.083-.026.08-.028a.613.613,0,0,0,.077-.028l.077-.031.074-.031.071-.031.071-.037.065-.034.068-.037.063-.04.065-.04.057-.04.063-.046a.381.381,0,0,0,.054-.04.527.527,0,0,0,.063-.048l.048-.04.071-.063.031-.031.1-.094.028-.034.063-.065.031-.043a.568.568,0,0,0,.054-.063l.031-.043.048-.065.028-.043.046-.065a.394.394,0,0,1,.028-.046c0-.023.026-.046.04-.068l.026-.043c0-.026.026-.048.037-.071a.314.314,0,0,0,.023-.043c0-.026.026-.051.037-.077l.02-.04c0-.028.026-.057.04-.088v-.026c.031-.08.063-.159.088-.239V262.9a.305.305,0,0,1,.031-.094.217.217,0,0,1,0-.04.108.108,0,0,1,.023-.08v-.014a.038.038,0,0,0,0-.017.688.688,0,0,1,.04-.151h0a.981.981,0,0,1,.031-.154v-.037a1.1,1.1,0,0,1,.023-.139.112.112,0,0,0,0-.048v-.37h0v-.5a.7.7,0,0,1,0-.077v-.1a.139.139,0,0,1,0-.034v-.114h0c-.017-.208-.037-.333-.037-.333v-.259l-.179-4.6v-.285c.265-.148.535-.316.817-.512,0,0-.048-2.624.709-3.68s-.378-3.822-.378-3.822l-.472-9.895.188-4.553a4.527,4.527,0,0,1-.569-2.208,8.035,8.035,0,0,0-.757-2.846s-.472-1.565.1-2.026-.615-10.53-.615-10.53a95.007,95.007,0,0,0-.256-11.725v-.071l.151-.068c-.045-.35-.094-.677-.148-.982l-.159.048a8,8,0,0,0-.285-1.138l-.757-3.475s-.017-.182-.037-.447c-.026-.313-.054-.737-.06-1.11a1.88,1.88,0,0,1,.051-.467l-.04-.034a1.035,1.035,0,0,1,.04-.242l-.165-.139s-.023-.157-.04-.4a4.451,4.451,0,0,1,.2-1.972c.378-.76,4.269-3.637,4.269-3.637l2.18-4.363s2.174-3.062,3.828-3.66a62.012,62.012,0,0,0,6.8-4.024A16.974,16.974,0,0,0,771.2,175.2l.06-.091h.034v-.06l4.838-7.248c1.935-1.565,2.006-4.9,2.006-4.9l.5-7.621-.165-4.508.233-2.561S782.964,137.392,778.9,137.551ZM751.19,157.273a6.1,6.1,0,0,0-.8,3.022v.276a6.078,6.078,0,0,0,.646,2.726,2.234,2.234,0,0,0-.469.834,4.526,4.526,0,0,1-.979-1.836,1.91,1.91,0,0,0-.757-1.241,5.212,5.212,0,0,1,.046-1.634l.026-.023s.02-.034.06-.091h0c.2-.3.882-1.332,1.585-2.5a2.239,2.239,0,0,0,.361.12l.433.108Z" transform="translate(-530.976 -103.323)" fill="url(#linear-gradient)"/>
    <path id="Path_1105" data-name="Path 1105" d="M855.354,216.542c.043-.1.077-.2.111-.3a6.294,6.294,0,0,0-.285.7C855.24,216.8,855.3,216.673,855.354,216.542Z" transform="translate(-621.354 -163.36)" fill="url(#linear-gradient-2)"/>
    <path id="Path_1106" data-name="Path 1106" d="M804.352,238.912s-.891,4.246-2.533,4.8,1.992,5.407,1.992,5.407l7.533-.413.137-1.574a7.777,7.777,0,0,1,.959-6.984C814.822,236.311,804.352,238.912,804.352,238.912Z" transform="translate(-582.874 -178.963)" fill="#f6bac2"/>
    <path id="Path_1107" data-name="Path 1107" d="M751.211,563.206c-.1,1.266-3.219.788-3.219.788-5.168.717-4.314-4.348-4.314-4.348v-.259l.179-4.724.051-1.318s5.692-2.6,5.547-2.055a3.236,3.236,0,0,0,.231,1.229c.285.885.692,1.887.692,1.887a17.018,17.018,0,0,1-.137,2.7c-.171.615.891,2.26.891,2.26s0,.1.017.285A33.2,33.2,0,0,1,751.211,563.206Z" transform="translate(-541.546 -403.006)" fill="#b77983"/>
    <path id="Path_1108" data-name="Path 1108" d="M797.134,566.011s-3.116.481-3.219-.788a32.375,32.375,0,0,1,.054-3.56,2.538,2.538,0,0,1,.014-.285s1.062-1.645.891-2.26a17.051,17.051,0,0,1-.137-2.706s.111-.265.256-.646a7.872,7.872,0,0,0,.669-2.467c-.137-.549,5.547,2.052,5.547,2.052l.057,1.474.174,4.568v.259S802.3,566.731,797.134,566.011Z" transform="translate(-577.506 -404.442)" fill="#b77983"/>
    <path id="Path_1109" data-name="Path 1109" d="M804.333,137.736a11.667,11.667,0,0,1-7.3,7.419s-3.677,2.726-4.2,3.58a30.191,30.191,0,0,1-6.232,5c-1.19.481-2.1,1.278-1.779,2.348.285.993-2.829,5.854-3.3,6.577h0l-.057.091-.982,1.027-3.333,1.688-2.715-.868-.344-3.261,1.44-2.561h0a7.066,7.066,0,0,0,2.04-2.228c.936-1.554,1.577-2.624,1.577-2.624a12.52,12.52,0,0,1,2.647-3.882,23.945,23.945,0,0,1,3.606-2.561l6.691-3.984a10.787,10.787,0,0,1,2.561-1.423C795.707,141.768,806.137,131.916,804.333,137.736Z" transform="translate(-563.341 -105.883)" fill="#f6bac2"/>
    <path id="Path_1110" data-name="Path 1110" d="M777.149,220.88l4.451-.891a.284.284,0,0,0-.08.185h0l-.057.091-.982,1.027-3.332,1.688-2.715-.868-.344-3.261,1.44-2.561h0a5.1,5.1,0,0,0-.034,4.866Z" transform="translate(-563.341 -163.396)" opacity="0.05"/>
    <path id="Path_1111" data-name="Path 1111" d="M860.826,267.611a.839.839,0,0,0-.031.091,1.252,1.252,0,0,1-.165.285l-1.8.877-2.741.285L854.67,265.7l.948-3.776.524-.706.145-.159c.054.683.33,4.246.313,5.316-.023,1.187.854,1.281.854,1.281Z" transform="translate(-620.99 -195.425)" opacity="0.05"/>
    <path id="Path_1112" data-name="Path 1112" d="M779.739,235.658a.826.826,0,0,0-.031.091,16.649,16.649,0,0,1-1.87,2.26,58.428,58.428,0,0,1-6.574,3.984c-1.6.583-3.7,3.628-3.7,3.628l-2.1,4.334s-3.765,2.846-4.129,3.609a4.5,4.5,0,0,0-.2,1.958,2.032,2.032,0,0,0,.034.393l-1.11,1.158-.885.922-1.246,1.3-2.029-.285-6.323-1-1.212-.683-6.73-3.791s0-.236-.017-.6c0-.159,0-.341-.017-.544-.02-.615-.048-1.38-.08-2.032a10.971,10.971,0,0,1,.959-3.651l1.892-4.659c-.182-.888.868-3.241.868-3.241a13.534,13.534,0,0,1,1.187-4.061,14.476,14.476,0,0,0,.731-2.718c.569-.82,1.392-5,1.392-5s.936-5.3,1.138-6.619,2.5-4.289,2.578-4.38a5.187,5.187,0,0,0-.2,5.2l1.645-.285,4.454-.868c-.2.137-.068,1.642-.068,1.642a1.9,1.9,0,0,1,.729,1.232,4.727,4.727,0,0,0,1,1.892l.023.026a2.228,2.228,0,0,1,1.073-1.531l1.027,1.372.344,1.642s-.094.231-.686.686.25,1.642.25,1.642a8.363,8.363,0,0,1,.367,2.26h0a3.328,3.328,0,0,1,1.938-.66,5.868,5.868,0,0,0,1.164-1.668.689.689,0,0,1,.982-.455,6.308,6.308,0,0,1,1.118-.777c.549-.285,1.187.285,1.187.285l.068,2.1s.054.085.142.2c.179.25.5.635.7.569a20.847,20.847,0,0,1,2.578.137s.8.342,1.1-.091a13.5,13.5,0,0,1,1.992-1.574s.327,4.237.327,5.421.854,1.281.854,1.281Z" transform="translate(-540.039 -163.21)" fill="#fe5045"/>
    <path id="Path_1113" data-name="Path 1113" d="M875.85,284.682h-.06C875.9,284.4,875.85,284.682,875.85,284.682Z" transform="translate(-636.099 -212.234)" fill="none"/>
    <circle id="Ellipse_491" data-name="Ellipse 491" cx="0.41" cy="0.41" r="0.41" transform="translate(220.612 69.264)" fill="#4b4442"/>
    <circle id="Ellipse_492" data-name="Ellipse 492" cx="0.41" cy="0.41" r="0.41" transform="translate(217.621 75.223)" fill="#4b4442"/>
    <circle id="Ellipse_493" data-name="Ellipse 493" cx="0.41" cy="0.41" r="0.41" transform="translate(211.733 87.981)" fill="#4b4442"/>
    <circle id="Ellipse_494" data-name="Ellipse 494" cx="0.41" cy="0.41" r="0.41" transform="translate(214.516 81.543)" fill="#4b4442"/>
    <path id="Path_1114" data-name="Path 1114" d="M750.348,552.52a5.5,5.5,0,0,1-5.828,2.143l.051-1.318s5.692-2.6,5.547-2.055A3.022,3.022,0,0,0,750.348,552.52Z" transform="translate(-542.187 -403.006)" opacity="0.05"/>
    <path id="Path_1115" data-name="Path 1115" d="M804.071,556.865c-3.634,2.1-5.766-.361-6.261-1.059a7.872,7.872,0,0,0,.669-2.467c-.137-.549,5.547,2.052,5.547,2.052Z" transform="translate(-580.311 -404.471)" opacity="0.05"/>
    <path id="Path_1116" data-name="Path 1116" d="M758.443,403.786c-.729,1.05-.686,3.651-.686,3.651-4.7,3.378-7.166-.731-7.166-.731a15.116,15.116,0,0,0-.228-4.747,9.9,9.9,0,0,1-.091-4.155,40.071,40.071,0,0,0-.322-4.792,9.17,9.17,0,0,1-.228-2.968,5.855,5.855,0,0,0-.592-2.1,6.452,6.452,0,0,0-.322-2.237,16.463,16.463,0,0,1-.683-3.335l-2.188-8.216s-.914-4.975-1.278-6.07-.822-.868-.822-.868l-1.315,5.888-1,10.043a11.017,11.017,0,0,0-.285,3.791l.319,3.879-.529,6.665a.139.139,0,0,0,0,.034.407.407,0,0,0,.165.33,10.967,10.967,0,0,1,.766,6.437c-3.469,5.023-7.67,2.419-7.67,2.419a10.652,10.652,0,0,0-.82-3.33c-.777-1.918.137-9.676.137-9.676l-.686-5.023a33.64,33.64,0,0,0-.182-3.415,30.053,30.053,0,0,1-.091-3.378l.091-3.15c-1.187-4.018-.595-10.362-.595-10.362s-.182-10.134.185-10.592c.265-.33.1-1.833.211-2.917a2.035,2.035,0,0,1,.268-.936l.046-.046c.595-.731.595-3.651.546-4.8a6.158,6.158,0,0,1,.783-2.368c.285-.552.544-1.007.64-1.172l.04-.065s2.6.64,9.494,3.927a12.954,12.954,0,0,0,3.922,1.215,8.723,8.723,0,0,0,2.046.031,7.143,7.143,0,0,0,2.943-.956,5.174,5.174,0,0,0,1.272-1.022,8.5,8.5,0,0,0,0,1.838c.017.265.037.444.037.444l.76,3.387a8.87,8.87,0,0,1,.285,1.227c.054.3.1.629.142.976A94.621,94.621,0,0,1,756,368.178s1.138,10,.595,10.453-.094,2.009-.094,2.009a8.1,8.1,0,0,1,.731,2.829,4.554,4.554,0,0,0,.549,2.191l-.185,4.519.478,9.8S759.174,402.735,758.443,403.786Z" transform="translate(-533.223 -255.82)" fill="#481a89"/>
    <path id="Path_1117" data-name="Path 1117" d="M806.13,488.953s3.458-1.992,4.212-1.1S806.13,488.953,806.13,488.953Z" transform="translate(-586.263 -357.513)" opacity="0.05"/>
    <path id="Path_1118" data-name="Path 1118" d="M813.146,496.14s-.569.285.686.649S813.146,496.14,813.146,496.14Z" transform="translate(-591.191 -363.605)" opacity="0.05"/>
    <path id="Path_1119" data-name="Path 1119" d="M739.992,476.78a5.306,5.306,0,0,0,5.581.376A41.618,41.618,0,0,0,739.992,476.78Z" transform="translate(-538.945 -349.723)" opacity="0.05"/>
    <path id="Path_1120" data-name="Path 1120" d="M751.808,490.24a3.67,3.67,0,0,1-2.5,1.85C747.631,492.329,751.808,490.24,751.808,490.24Z" transform="translate(-545.328 -359.384)" opacity="0.05"/>
    <path id="Path_1121" data-name="Path 1121" d="M797.71,502.52s3.939,6.261,3.185,7.738S797.71,502.52,797.71,502.52Z" transform="translate(-580.24 -368.169)" opacity="0.05"/>
    <path id="Path_1122" data-name="Path 1122" d="M773.34,369.09l-.41,12.257s2.43-.1,2.846-4.141.72-7.328.72-7.328Z" transform="translate(-562.512 -272.711)" opacity="0.05"/>
    <path id="Path_1123" data-name="Path 1123" d="M772.86,368.13l-.41,12.257s2.43-.1,2.846-4.144.726-7.325.726-7.325Z" transform="translate(-562.168 -272.024)" fill="#00051a"/>
    <path id="Path_1124" data-name="Path 1124" d="M740.716,369.109s-1.918,5.142-6.306,2.652a2.024,2.024,0,0,1,.268-.936c1.2.5,3.984,1.241,5.122-2.095Z" transform="translate(-534.954 -272.454)" opacity="0.05"/>
    <path id="Path_1125" data-name="Path 1125" d="M740.236,367.186s-1.918,5.142-6.306,2.652a2.035,2.035,0,0,1,.268-.936c1.2.507,3.984,1.241,5.122-2.092Z" transform="translate(-534.61 -271.08)" opacity="0.05"/>
    <path id="Path_1126" data-name="Path 1126" d="M740.236,368.146s-1.918,5.142-6.306,2.652a2.035,2.035,0,0,1,.268-.936c1.2.507,3.984,1.241,5.122-2.092Z" transform="translate(-534.61 -271.767)" fill="#8499f0"/>
    <path id="Path_1127" data-name="Path 1127" d="M798.528,377.5c-4.821,2.294-6.588-3.113-6.588-3.113l1.138.034c.2,3.458,4.01,2.527,5.316,2.1C798.44,376.84,798.485,377.156,798.528,377.5Z" transform="translate(-576.112 -276.503)" fill="#00051a" opacity="0.05"/>
    <path id="Path_1128" data-name="Path 1128" d="M799.488,376.056c-4.818,2.291-6.588-3.116-6.588-3.116l1.138.034c.2,3.458,4.01,2.53,5.316,2.106C799.4,375.382,799.445,375.709,799.488,376.056Z" transform="translate(-576.798 -275.466)" opacity="0.05"/>
    <path id="Path_1129" data-name="Path 1129" d="M799.008,376.536c-4.818,2.291-6.588-3.116-6.588-3.116l1.138.034c.2,3.461,4.01,2.53,5.316,2.106C798.92,375.862,798.965,376.189,799.008,376.536Z" transform="translate(-576.455 -275.809)" fill="#8499f0"/>
    <path id="Path_1130" data-name="Path 1130" d="M740.236,368.146s-1.918,5.142-6.306,2.652a2.035,2.035,0,0,1,.268-.936c1.2.507,3.984,1.241,5.122-2.092Z" transform="translate(-534.61 -271.767)" fill="#00051a" opacity="0.7"/>
    <path id="Path_1131" data-name="Path 1131" d="M799.008,376.536c-4.818,2.291-6.588-3.116-6.588-3.116l1.138.034c.2,3.461,4.01,2.53,5.316,2.106C798.92,375.862,798.965,376.189,799.008,376.536Z" transform="translate(-576.455 -275.809)" fill="#311" opacity="0.63"/>
    <path id="Path_1132" data-name="Path 1132" d="M751.248,582.563a8.07,8.07,0,0,1-.034.948c-.1,1.266-3.219.788-3.219.788-2.846.4-3.87-.97-4.209-2.277a5.207,5.207,0,0,1-.156-1.3,5.383,5.383,0,0,1,.051-.78v-.259a1.9,1.9,0,0,1,1.77.361,3.006,3.006,0,0,0,2.945.239,3.952,3.952,0,0,1,1.708.512c.268.231.709-.324,1.044-.854.02.341.051.959.071,1.619C751.242,581.9,751.248,582.245,751.248,582.563Z" transform="translate(-541.55 -423.317)" opacity="0.05"/>
    <path id="Path_1133" data-name="Path 1133" d="M746.251,585.333s-.854.837-2.464-.455a5.208,5.208,0,0,1-.156-1.3A14.888,14.888,0,0,0,746.251,585.333Z" transform="translate(-541.55 -426.161)" opacity="0.05"/>
    <path id="Path_1134" data-name="Path 1134" d="M768.075,587.482a.643.643,0,0,1-.925-.148,6.085,6.085,0,0,0,.911-.854C768.069,586.821,768.075,587.163,768.075,587.482Z" transform="translate(-558.376 -428.236)" opacity="0.05"/>
    <path id="Path_1135" data-name="Path 1135" d="M793.868,584.628a8.752,8.752,0,0,0,.031.948c.1,1.269,3.219.788,3.219.788,2.846.4,3.87-.968,4.209-2.277a5.467,5.467,0,0,0,.105-2.077v-.259a1.927,1.927,0,0,0-1.773.361,3,3,0,0,1-2.943.239,3.968,3.968,0,0,0-1.708.515c-.268.23-.709-.324-1.042-.854-.02.341-.054.959-.074,1.619C793.871,583.965,793.865,584.306,793.868,584.628Z" transform="translate(-577.491 -424.796)" opacity="0.05"/>
    <path id="Path_1136" data-name="Path 1136" d="M811.43,587.38s.854.837,2.462-.455a5.192,5.192,0,0,0,.159-1.295A15.219,15.219,0,0,1,811.43,587.38Z" transform="translate(-590.055 -427.627)" opacity="0.05"/>
    <path id="Path_1137" data-name="Path 1137" d="M793.868,589.542a.64.64,0,0,0,.922-.148,6.018,6.018,0,0,1-.911-.854C793.871,588.879,793.865,589.22,793.868,589.542Z" transform="translate(-577.49 -429.709)" opacity="0.05"/>
    <path id="Path_1138" data-name="Path 1138" d="M772.923,285s-4.383,12.1-2.7,13.148S772.923,285,772.923,285Z" transform="translate(-560.302 -212.552)" opacity="0.05"/>
    <path id="Path_1139" data-name="Path 1139" d="M790.572,271.88s-.825,4.018-.413,4.383S790.572,271.88,790.572,271.88Z" transform="translate(-574.755 -203.166)" opacity="0.05"/>
    <path id="Path_1140" data-name="Path 1140" d="M810.328,304.77s-5.387,5.02-5.023,5.433S810.328,304.77,810.328,304.77Z" transform="translate(-585.661 -226.696)" opacity="0.05"/>
    <path id="Path_1141" data-name="Path 1141" d="M820.214,259.258c-2.04.623-6.81,2.08-6.864,2.069l.265-1.087a3.328,3.328,0,0,1,1.938-.66,5.867,5.867,0,0,0,1.164-1.668.689.689,0,0,1,.982-.455,6.479,6.479,0,0,1,1.118-.777c.549-.285,1.187.285,1.187.285l.068,2.1S820.126,259.141,820.214,259.258Z" transform="translate(-591.429 -192.234)" opacity="0.05"/>
    <path id="Path_1142" data-name="Path 1142" d="M820.214,258.318c-2.04.623-6.81,2.08-6.864,2.066l.265-1.084a3.328,3.328,0,0,1,1.938-.66,5.867,5.867,0,0,0,1.164-1.668.689.689,0,0,1,.982-.455,6.313,6.313,0,0,1,1.118-.777c.549-.285,1.187.285,1.187.285l.068,2.1S820.126,258.2,820.214,258.318Z" transform="translate(-591.429 -191.562)" fill="#d39999"/>
    <path id="Path_1143" data-name="Path 1143" d="M807.395,247.557a8.336,8.336,0,0,1,.364,2.26l-.794.632-1.508-4.348-.068-2.26-.028-.128.023.026a2.217,2.217,0,0,1,1.073-1.528l1.027,1.369.344,1.642s-.094.231-.686.686S807.395,247.557,807.395,247.557Z" transform="translate(-585.713 -181.939)" opacity="0.05"/>
    <path id="Path_1144" data-name="Path 1144" d="M807.885,247.062a8.363,8.363,0,0,1,.367,2.26l-.794.64-1.508-4.348-.068-2.26-.031-.128.023.026a2.228,2.228,0,0,1,1.073-1.531l1.027,1.372.344,1.642s-.094.231-.686.686S807.885,247.062,807.885,247.062Z" transform="translate(-586.063 -181.589)" fill="#d39999"/>
    <path id="Path_1145" data-name="Path 1145" d="M817.382,218.854a6.11,6.11,0,1,1-1.789-4.374A6.161,6.161,0,0,1,817.382,218.854Z" transform="translate(-585.498 -160.82)" opacity="0.05"/>
    <path id="Path_1146" data-name="Path 1146" d="M817.368,217.891a6.127,6.127,0,1,1-1.795-4.367A6.164,6.164,0,0,1,817.368,217.891Z" transform="translate(-585.484 -160.133)" fill="#f6bac2"/>
    <path id="Path_1147" data-name="Path 1147" d="M819.328,217.872a6.128,6.128,0,0,1-.9,3.2c-.091-.162-.145-.35-.236-.515-.128-.23-.424-.424-.643-.285a.658.658,0,0,0-.2.285c-.179.379-.5.757-.916.748a.908.908,0,0,1-.78-.666,2.734,2.734,0,0,1-.046-1.087,2.478,2.478,0,0,0-.475-2.092,3.114,3.114,0,0,0-1.19-.532,1.56,1.56,0,0,1-1.025-.757c-.114-.285-.085-.586-.188-.854a1.494,1.494,0,0,0-1.107-.814,2.9,2.9,0,0,1-1.938.663,7.263,7.263,0,0,1-1.907-.3,6.164,6.164,0,0,1,11.548,3Z" transform="translate(-587.444 -160.114)" opacity="0.05"/>
    <path id="Path_1148" data-name="Path 1148" d="M810.224,207.364c.1.285.074.592.188.854a1.554,1.554,0,0,0,1.025.757,3.131,3.131,0,0,1,1.19.529,2.486,2.486,0,0,1,.475,2.095,2.734,2.734,0,0,0,.046,1.087.913.913,0,0,0,.78.666,1.132,1.132,0,0,0,.916-.748.663.663,0,0,1,.2-.285c.219-.145.515.048.643.285a2.82,2.82,0,0,0,.367.692.819.819,0,0,0,.748.171,1.887,1.887,0,0,0,.7-.364,3.853,3.853,0,0,0,1.309-1.574,2.26,2.26,0,0,0-.083-1.992,5.98,5.98,0,0,1-.686-1.042c-.233-.68.2-1.38.475-2.046a3.551,3.551,0,0,0,.242-1.932,2.482,2.482,0,0,0-1.016-1.631c-1.081-.72-2.544-.324-3.8-.672a9.627,9.627,0,0,1-1.306-.538,9.676,9.676,0,0,0-1.992-.637,1.94,1.94,0,0,0-1.932.39,4.307,4.307,0,0,0-.313.546,1.966,1.966,0,0,1-1.229.9c-.367.088-.751.065-1.138.12a1.252,1.252,0,0,0-.948.544,1.886,1.886,0,0,0-.063,1.138,1.155,1.155,0,0,1-.285,1.073c-.145.111-.344.165-.433.322a.452.452,0,0,0,.134.538,1.283,1.283,0,0,0,.544.239,8.318,8.318,0,0,0,2.183.373,2.88,2.88,0,0,0,2.032-.748c-.048.048-.361.028-.418.026A1.663,1.663,0,0,1,810.224,207.364Z" transform="translate(-584.936 -152.426)" fill="#7e646b"/>
    <g id="Group_24" data-name="Group 24" transform="translate(219.421 50.905)" opacity="0.05">
      <path id="Path_1149" data-name="Path 1149" d="M818.064,224.609a1.937,1.937,0,0,1-.7.367.825.825,0,0,1-.746-.174,2.777,2.777,0,0,1-.37-.692c-.128-.231-.424-.424-.643-.285a.7.7,0,0,0-.2.285,1.114,1.114,0,0,1-.916.748.9.9,0,0,1-.777-.666,2.735,2.735,0,0,1-.048-1.087,2.479,2.479,0,0,0-.472-2.092,3.131,3.131,0,0,0-1.192-.532,1.567,1.567,0,0,1-1.024-.757c-.114-.285-.085-.586-.188-.854a1.488,1.488,0,0,0-1.107-.814,2.954,2.954,0,0,1-1.938.666,8.441,8.441,0,0,1-2.183-.376,1.317,1.317,0,0,1-.544-.236.6.6,0,0,1-.088-.1.8.8,0,0,0-.319.248.452.452,0,0,0,.134.538,1.283,1.283,0,0,0,.544.239,8.319,8.319,0,0,0,2.183.373,2.928,2.928,0,0,0,1.935-.663,1.489,1.489,0,0,1,1.11.811c.1.285.074.592.188.854a1.56,1.56,0,0,0,1.024.757,3.13,3.13,0,0,1,1.19.529,2.486,2.486,0,0,1,.475,2.095,2.735,2.735,0,0,0,.046,1.087.913.913,0,0,0,.78.666,1.132,1.132,0,0,0,.916-.748.663.663,0,0,1,.2-.285c.219-.145.515.048.643.285a2.735,2.735,0,0,0,.37.692.814.814,0,0,0,.746.171,1.887,1.887,0,0,0,.7-.364,3.853,3.853,0,0,0,1.309-1.574,2.513,2.513,0,0,0,.122-.376,4.058,4.058,0,0,1-1.158,1.266Z" transform="translate(-804.565 -215.531)"/>
      <path id="Path_1150" data-name="Path 1150" d="M854,219.842c.06-.131.117-.262.171-.39a2.583,2.583,0,0,0,.105-.3A6.73,6.73,0,0,0,854,219.842Z" transform="translate(-839.932 -216.347)"/>
      <path id="Path_1151" data-name="Path 1151" d="M807.063,211a1.167,1.167,0,0,0,.259-1.047,4.65,4.65,0,0,1-.054-.657.968.968,0,0,0-.156.2,1.886,1.886,0,0,0-.063,1.138A2.222,2.222,0,0,1,807.063,211Z" transform="translate(-806.301 -209.3)"/>
    </g>
    <path id="Path_1152" data-name="Path 1152" d="M759.956,350.31c-.529.037-1.272.077-2.166.108-.62.02-1.315.034-2.058.034-.649,0-1.335,0-2.046-.031a43.871,43.871,0,0,1-6.708-.692c-2.957-.569-5.692-1.551-7.4-3.213.285-.552.544-1.01.64-1.172,0-.159,0-.344-.017-.544,3,1.423,12.362,5.376,19.537,3.13a2.032,2.032,0,0,0,.034.393l.162.137A8.638,8.638,0,0,0,759.956,350.31Z" transform="translate(-538.652 -255.334)" opacity="0.05"/>
    <path id="Path_1153" data-name="Path 1153" d="M759.956,349.342c-.529.037-1.272.077-2.166.105-.62.023-1.315.034-2.058.034-.649,0-1.335,0-2.046-.031a43.865,43.865,0,0,1-6.708-.689c-2.957-.569-5.692-1.554-7.4-3.216.285-.552.544-1.007.64-1.172,0-.159,0-.341-.017-.544,3,1.423,12.362,5.379,19.537,3.145a2.032,2.032,0,0,0,.034.393l.162.137A8.531,8.531,0,0,0,759.956,349.342Z" transform="translate(-538.652 -254.64)" fill="#4b4442"/>
    <path id="Path_1154" data-name="Path 1154" d="M309.8,482.832a3.913,3.913,0,0,1-.874-2.98l12.562-102.783,1.042-8.538a3.941,3.941,0,0,1,3.882-3.461l36.794-.245a3.936,3.936,0,0,0,3.91-4.044l-.014-.39a3.939,3.939,0,0,1,3.936-4.072H409.7a3.936,3.936,0,0,1,3.936,3.927,4.2,4.2,0,0,1-.034.529,3.936,3.936,0,0,0,3.8,4.457l37.132.948a3.933,3.933,0,0,1,3.779,4.6L439.752,479.206l-.35,2.049a3.85,3.85,0,0,1-.569,1.468Z" transform="translate(-230.534 -263.575)" fill="#b7b6cc"/>
    <g id="Group_25" data-name="Group 25" transform="translate(148.489 70.137)" opacity="0.5">
      <rect id="Rectangle_89" data-name="Rectangle 89" width="74.797" height="22.869" transform="matrix(0.568, -0.823, 0.823, 0.568, 0, 61.539)" fill="url(#linear-gradient-3)"/>
    </g>
    <rect id="Rectangle_90" data-name="Rectangle 90" width="21.742" height="73.795" transform="matrix(0.823, 0.568, -0.568, 0.823, 191.322, 70.969)" fill="#f9fafb"/>
    <rect id="Rectangle_91" data-name="Rectangle 91" width="15.35" height="15.35" transform="matrix(0.821, 0.571, -0.571, 0.821, 192.611, 73.846)" fill="#ffa25a"/>
    <rect id="Rectangle_92" data-name="Rectangle 92" width="15.37" height="15.37" transform="matrix(0.823, 0.568, -0.568, 0.823, 182.737, 89.035)" fill="#f7b643" opacity="0.5"/>
    <rect id="Rectangle_93" data-name="Rectangle 93" width="15.37" height="15.37" transform="matrix(0.823, 0.568, -0.568, 0.823, 172.187, 104.302)" fill="#f7b643" opacity="0.3"/>
    <g id="Group_26" data-name="Group 26" transform="translate(144.565 66.474)" opacity="0.5">
      <rect id="Rectangle_94" data-name="Rectangle 94" width="74.518" height="22.869" transform="matrix(0.28, -0.96, 0.96, 0.28, 0, 71.526)" fill="url(#linear-gradient-4)"/>
    </g>
    <rect id="Rectangle_95" data-name="Rectangle 95" width="21.742" height="73.517" transform="matrix(0.96, 0.28, -0.28, 0.96, 166.048, 67.166)" fill="#f9fafb"/>
    <rect id="Rectangle_96" data-name="Rectangle 96" width="15.37" height="15.37" transform="matrix(0.96, 0.28, -0.28, 0.96, 168.787, 69.203)" fill="#fe5045"/>
    <rect id="Rectangle_97" data-name="Rectangle 97" width="15.37" height="15.37" transform="matrix(0.96, 0.28, -0.28, 0.96, 163.582, 87.014)" fill="#f97878" opacity="0.5"/>
    <rect id="Rectangle_98" data-name="Rectangle 98" width="15.37" height="15.37" transform="matrix(0.96, 0.28, -0.28, 0.96, 158.377, 104.823)" fill="#f97878" opacity="0.3"/>
    <g id="Group_27" data-name="Group 27" transform="translate(144.604 67.716)" opacity="0.5">
      <rect id="Rectangle_99" data-name="Rectangle 99" width="74.518" height="22.869" transform="matrix(0.08, -0.997, 0.997, 0.08, 0, 74.278)" fill="url(#linear-gradient-5)"/>
    </g>
    <rect id="Rectangle_100" data-name="Rectangle 100" width="21.742" height="73.517" transform="matrix(0.997, 0.08, -0.08, 0.997, 151.266, 68.279)" fill="#f9fafb"/>
    <rect id="Rectangle_101" data-name="Rectangle 101" width="15.37" height="15.37" transform="matrix(0.997, 0.08, -0.08, 0.997, 154.35, 69.721)" fill="#ff795a"/>
    <rect id="Rectangle_102" data-name="Rectangle 102" width="15.37" height="15.37" transform="matrix(0.997, 0.08, -0.08, 0.997, 152.86, 88.213)" fill="#ff795a" opacity="0.5"/>
    <rect id="Rectangle_103" data-name="Rectangle 103" width="15.37" height="15.37" transform="matrix(0.997, 0.08, -0.08, 0.997, 151.373, 106.712)" fill="#73b53b" opacity="0.3"/>
    <g id="Group_28" data-name="Group 28" transform="translate(140.742 69.717)" opacity="0.5">
      <rect id="Rectangle_104" data-name="Rectangle 104" width="22.869" height="74.518" transform="translate(0 1.041) rotate(-2.61)" fill="url(#linear-gradient-6)"/>
    </g>
    <rect id="Rectangle_105" data-name="Rectangle 105" width="21.742" height="73.517" transform="translate(141.515 71.225) rotate(-2.61)" fill="#fff"/>
    <rect id="Rectangle_106" data-name="Rectangle 106" width="15.37" height="15.37" transform="translate(144.753 72.263) rotate(-2.61)" fill="#481a89"/>
    <rect id="Rectangle_107" data-name="Rectangle 107" width="15.39" height="15.39" transform="translate(146.2 90.213) rotate(-2.862)" fill="#6c63ff" opacity="0.5"/>
    <rect id="Rectangle_108" data-name="Rectangle 108" width="15.37" height="15.37" transform="translate(146.443 109.337) rotate(-2.61)" fill="#6c63ff" opacity="0.3"/>
    <path id="Path_1155" data-name="Path 1155" d="M310.85,412.854l-19.318,7.473L263.3,431.241c-1.067-1.992-2.638-4.684-4.582-7.9-6.688-11.082-17.752-28.319-27.6-43.467-11.1-17.075-20.652-31.484-20.652-31.484l6.915-1.992,56.49-16.4Z" transform="translate(-160.111 -244.746)" fill="#e6ecf8"/>
    <path id="Path_1156" data-name="Path 1156" d="M328.242,412.854l-19.318,7.473a145.2,145.2,0,0,1-32.824,3.017c-6.688-11.082-17.752-28.319-27.6-43.467L234.77,346.389,291.257,330Z" transform="translate(-177.503 -244.746)" opacity="0.1"/>
    <path id="Path_1157" data-name="Path 1157" d="M335.852,387.471s-30.009,17.752-74.814,13.737L225.32,314.125l17.118-2.943,59.176-10.162,33.581,84.758Z" transform="translate(-170.742 -224.013)" fill="#481a89"/>
    <path id="Path_1158" data-name="Path 1158" d="M378.216,385.818a141.848,141.848,0,0,1-23.467-.669c-8.9-1.047-17.855-3.2-25.53-7.16a77.367,77.367,0,0,1-16.688-11.21c-12.445-11.193-20.146-27.2-27.061-55.556l59.176-10.162Z" transform="translate(-213.775 -224.042)" opacity="0.1"/>
    <path id="Path_1159" data-name="Path 1159" d="M390.137,317.2s-22.121,4.331-44.637,1.665c-8.9-1.047-17.855-3.2-25.53-7.16a77.439,77.439,0,0,1-16.688-11.21c-15.4-13.856-23.535-35.092-31.922-77.976,0,0,36.774,8.876,73.138-10.567C344.487,211.964,356.744,288.455,390.137,317.2Z" transform="translate(-203.68 -160.291)" fill="#f9fafb"/>
    <path id="Path_1160" data-name="Path 1160" d="M425.748,520.753c-8.9-1.047-17.855-3.2-25.53-7.16a77.437,77.437,0,0,1-16.688-11.21c13.114-1.064,15-8.233,15-8.233C408.249,509.577,425.748,520.753,425.748,520.753Z" transform="translate(-283.929 -362.181)" opacity="0.1"/>
    <path id="Path_1161" data-name="Path 1161" d="M338.2,283.946s29.9-1.69,38.254-8.136l1.266,4.07S357.962,288.6,338.2,288.7Z" transform="translate(-251.499 -205.977)" fill="#6c63ff" opacity="0.3"/>
    <path id="Path_1162" data-name="Path 1162" d="M338.2,344.452s28.954-1.585,50.83-12.152l.74,1.69s-17.36,10.134-51.569,12.786Z" transform="translate(-251.499 -246.391)" fill="#6c63ff" opacity="0.3"/>
    <path id="Path_1163" data-name="Path 1163" d="M346.39,371.962s28.954-1.585,50.827-12.152l.74,1.69s-17.36,10.131-51.567,12.786Z" transform="translate(-257.358 -266.072)" fill="#6c63ff" opacity="0.3"/>
    <path id="Path_1164" data-name="Path 1164" d="M354.57,399.512s28.954-1.585,50.83-12.152l.737,1.69s-17.36,10.134-51.567,12.786Z" transform="translate(-263.21 -285.782)" fill="#6c63ff" opacity="0.3"/>
    <path id="Path_1165" data-name="Path 1165" d="M362.76,427.062s28.954-1.585,50.827-12.152l.74,1.69s-17.36,10.134-51.567,12.786Z" transform="translate(-269.069 -305.492)" fill="#6c63ff" opacity="0.3"/>
    <path id="Path_1166" data-name="Path 1166" d="M370.94,454.622s28.954-1.585,50.83-12.152l.737,1.69s-17.36,10.131-51.567,12.786Z" transform="translate(-274.921 -325.208)" fill="#6c63ff" opacity="0.3"/>
    <path id="Path_1167" data-name="Path 1167" d="M1059.333,827.2s-12.032-.726-10.615,7.707a2.05,2.05,0,0,0,1.07,2.166s.02-.626,1.232-.413a5.525,5.525,0,0,0,1.309.063,2.7,2.7,0,0,0,1.6-.66h0s3.384-1.4,4.7-6.924c0,0,.973-1.207.933-1.517l-2.029.854a3.636,3.636,0,0,1,.148,2.681s-.065-2.627-.455-2.561c-.08,0-1.056.507-1.056.507s1.192,2.561.285,4.405c0,0,.342-3.145-.666-4.22l-1.423.834s1.395,2.635.45,4.787c0,0,.242-3.3-.751-4.585l-1.295,1.01s1.312,2.6.512,4.383c0,0-.105-3.842-.794-4.132a7.363,7.363,0,0,0-1.3,1.423s.9,1.884.339,2.88c0,0-.341-2.561-.62-2.561a8.455,8.455,0,0,0-1.246,2.846,6.154,6.154,0,0,1,.973-3.019,3.415,3.415,0,0,0-1.73.9s.176-1.2,2.009-1.3a8,8,0,0,1,1.181-1.366,7.434,7.434,0,0,0-2.926.339s.973-1.138,3.261-.617l1.278-1.042a10.5,10.5,0,0,0-3.415.034s1.17-1,3.759-.285l1.392-.831a12.672,12.672,0,0,0-3.261-.285,5,5,0,0,1,3.671.057l.993-.447s-1.5-.285-1.935-.341-.464-.165-.464-.165a5.162,5.162,0,0,1,2.814.313A12.63,12.63,0,0,0,1059.333,827.2Z" transform="translate(-759.732 -600.44)" fill="#481a89"/>
    <ellipse id="Ellipse_495" data-name="Ellipse 495" cx="8.515" cy="1.44" rx="8.515" ry="1.44" transform="translate(282.799 235.927)" fill="#6c63ff" opacity="0.1"/>
    <ellipse id="Ellipse_496" data-name="Ellipse 496" cx="29.028" cy="2.63" rx="29.028" ry="2.63" transform="translate(202.553 229.362)" fill="#6c63ff" opacity="0.1"/>
    <path id="Path_1168" data-name="Path 1168" d="M1090.809,729.408s-6.782-.41-5.976,4.346a1.158,1.158,0,0,0,.6,1.221s.014-.353.7-.233a3.167,3.167,0,0,0,.737.034,1.519,1.519,0,0,0,.9-.37h0s1.907-.788,2.65-3.9c0,0,.549-.68.526-.854l-1.138.487a2.063,2.063,0,0,1,.083,1.514s-.037-1.483-.256-1.449c-.046,0-.595.285-.595.285a3.377,3.377,0,0,1,.165,2.484s.193-1.773-.376-2.382l-.805.472a3.563,3.563,0,0,1,.253,2.7,5.053,5.053,0,0,0-.424-2.584l-.729.569a3.478,3.478,0,0,1,.285,2.47s-.06-2.166-.447-2.328a4.557,4.557,0,0,0-.737.794s.507,1.064.194,1.625c0,0-.194-1.443-.35-1.449a4.756,4.756,0,0,0-.7,1.608,3.482,3.482,0,0,1,.549-1.708,1.908,1.908,0,0,0-.976.507s.1-.677,1.138-.734a4.539,4.539,0,0,1,.666-.771,4.2,4.2,0,0,0-1.651.191,1.854,1.854,0,0,1,1.838-.347l.723-.589a5.951,5.951,0,0,0-1.927.02,2.324,2.324,0,0,1,2.12-.154l.785-.47a7.087,7.087,0,0,0-1.841-.157,2.811,2.811,0,0,1,2.069.031l.569-.25s-.854-.168-1.093-.194-.262-.094-.262-.094a2.936,2.936,0,0,1,1.588.176A6.89,6.89,0,0,0,1090.809,729.408Z" transform="translate(-785.604 -530.482)" fill="#481a89"/>
    <ellipse id="Ellipse_497" data-name="Ellipse 497" cx="4.801" cy="0.811" rx="4.801" ry="0.811" transform="translate(295.737 204.094)" fill="#6c63ff" opacity="0.1"/>
    <path id="Path_1169" data-name="Path 1169" d="M946.963,743.9s-8.19-.5-7.223,5.245a1.4,1.4,0,0,0,.726,1.474s0-.427.854-.285a3.741,3.741,0,0,0,.891.043,1.838,1.838,0,0,0,1.087-.45h0s2.3-.951,3.2-4.713c0,0,.663-.82.635-1.033l-1.4.592a2.47,2.47,0,0,1,.1,1.824s-.046-1.787-.31-1.747c-.054,0-.717.347-.717.347a4.093,4.093,0,0,1,.2,3s.233-2.14-.453-2.874l-.973.569a4.3,4.3,0,0,1,.3,3.258s.165-2.245-.509-3.13l-.882.689s.894,1.767.347,2.982c0,0-.068-2.615-.538-2.812a5.357,5.357,0,0,0-.888.959s.609,1.284.23,1.961c0,0-.233-1.742-.424-1.75a5.954,5.954,0,0,0-.854,1.944,4.2,4.2,0,0,1,.663-2.055,2.306,2.306,0,0,0-1.175.612s.12-.817,1.366-.888a5.25,5.25,0,0,1,.805-.928,5.045,5.045,0,0,0-1.992.228,2.233,2.233,0,0,1,2.217-.418l.871-.711a7.24,7.24,0,0,0-2.325.023,2.829,2.829,0,0,1,2.561-.182l.948-.569a8.614,8.614,0,0,0-2.223-.191,3.4,3.4,0,0,1,2.5.04l.677-.3s-1.019-.2-1.318-.231-.313-.114-.313-.114a3.518,3.518,0,0,1,1.915.211A8.779,8.779,0,0,0,946.963,743.9Z" transform="translate(-681.793 -540.851)" fill="#481a89"/>
    <ellipse id="Ellipse_498" data-name="Ellipse 498" cx="5.797" cy="0.979" rx="5.797" ry="0.979" transform="translate(253.732 209.293)" fill="#6c63ff" opacity="0.1"/>
    <ellipse id="Ellipse_499" data-name="Ellipse 499" cx="8.515" cy="1.44" rx="8.515" ry="1.44" transform="translate(7.038 231.636)" fill="#6c63ff" opacity="0.1"/>
    <path id="Path_1170" data-name="Path 1170" d="M68.1,819.339s4.855-.148,6.321-1.19,7.47-2.277,7.835-.618,7.3,8.316,1.816,8.361-12.741-.854-14.2-1.745S68.1,819.339,68.1,819.339Z" transform="translate(-58.265 -592.953)" fill="#a8a8a8"/>
    <path id="Path_1171" data-name="Path 1171" d="M84.153,831.876c-5.484.046-12.741-.854-14.2-1.744-1.11-.677-1.554-3.111-1.708-4.232H68.08s.307,3.919,1.767,4.81,8.74,1.793,14.209,1.764c1.582-.014,2.129-.569,2.1-1.423C85.935,831.552,85.331,831.868,84.153,831.876Z" transform="translate(-58.25 -599.521)" opacity="0.2"/>
    <rect id="Rectangle_109" data-name="Rectangle 109" width="48.57" height="86.918" transform="matrix(0.309, -0.951, 0.951, 0.309, 224.738, 46.192)" fill="url(#linear-gradient-7)"/>
    <rect id="Rectangle_110" data-name="Rectangle 110" width="47.901" height="85.717" transform="matrix(0.309, -0.951, 0.951, 0.309, 225.412, 46.061)" fill="#f6f7f9"/>
    <g id="Group_29" data-name="Group 29" transform="translate(240.069 16.795)" opacity="0.2">
      <circle id="Ellipse_500" data-name="Ellipse 500" cx="8.925" cy="8.925" r="8.925" fill="#6c63ff"/>
    </g>
    <g id="Group_30" data-name="Group 30" transform="translate(270.346 21.789)" opacity="0.2">
      <rect id="Rectangle_111" data-name="Rectangle 111" width="2.445" height="38.883" transform="matrix(0.309, -0.951, 0.951, 0.309, 0, 2.325)" fill="#6c63ff"/>
    </g>
    <g id="Group_31" data-name="Group 31" transform="translate(268.418 27.716)" opacity="0.2">
      <rect id="Rectangle_112" data-name="Rectangle 112" width="2.445" height="19.807" transform="matrix(0.309, -0.951, 0.951, 0.309, 0, 2.325)" fill="#6c63ff"/>
    </g>
    <g id="Group_32" data-name="Group 32" transform="translate(266.488 33.647)" opacity="0.2">
      <rect id="Rectangle_113" data-name="Rectangle 113" width="2.445" height="32.036" transform="matrix(0.309, -0.951, 0.951, 0.309, 0, 2.325)" fill="#6c63ff"/>
    </g>
    <g id="Group_33" data-name="Group 33" transform="translate(264.561 39.575)" opacity="0.2">
      <rect id="Rectangle_114" data-name="Rectangle 114" width="2.445" height="38.883" transform="matrix(0.309, -0.951, 0.951, 0.309, 0, 2.325)" fill="#6c63ff"/>
    </g>
    <g id="Group_34" data-name="Group 34" transform="translate(287.818 56.831)" opacity="0.5">
      <rect id="Rectangle_115" data-name="Rectangle 115" width="4.727" height="10.76" transform="matrix(0.309, -0.951, 0.951, 0.309, 0, 4.495)" fill="#481a89"/>
    </g>
    <path id="Path_1172" data-name="Path 1172" d="M820.141,451.85a2.57,2.57,0,0,0-.028-.285,1.447,1.447,0,0,0-.048-.285c-.037-.194-.077-.384-.122-.569-.023-.088-.046-.179-.071-.265a7.217,7.217,0,0,0-1.423-2.752c-.037-.046-.077-.088-.114-.131s-.154-.165-.231-.242-.148-.145-.222-.211-.142-.125-.211-.182c-.137-.111-.265-.2-.376-.285a2.335,2.335,0,0,0-.23-.148,1.265,1.265,0,0,0-.535-.174l-1.181-.117h0l-1.614-.159-5.768-2.24-.228.08a13.082,13.082,0,0,1-.427-1.423,1.275,1.275,0,0,0,.455-.333,1.039,1.039,0,0,0,.313-.4c.145-.336-.134-1.05-.077-1.46a6.887,6.887,0,0,1,.711-1.887,8.753,8.753,0,0,0,.953-4.067,4.587,4.587,0,0,0-1.9-3.609c-.612-.407-1.332-.623-1.969-.993-.5-.285-.931-.666-1.4-.99a8.065,8.065,0,0,0-7.946-.569,38.77,38.77,0,0,0-3.35,2.18,5.654,5.654,0,0,1-3.785,1.042.925.925,0,0,0-.04.165l-.111-.014c-.228.62.33,1.235.854,1.659a5.764,5.764,0,0,0,3.355,1.636,3.525,3.525,0,0,1,1.46.108,1.336,1.336,0,0,1,.285.171,6.341,6.341,0,0,0,1.992,6.321l-2.945-1.059s-.122.063-.313.182l-4.087-2.721s-8.193-2.971-10.47,1.656,9.867,2.24,9.867,2.24l2.6,1.423a2.365,2.365,0,0,0,.285,1.56l7.083,4.377a37.415,37.415,0,0,1-4.2,1.138c-.606,0-2.277.6-3.338,2.985s-4.858,14.036-8.2,15.977-12.14,14.932-12.14,14.932l.04.1c-.156.043-.31.085-.461.137a9.328,9.328,0,0,0-4.573,3.449,1.463,1.463,0,0,0,1.024,2.308,6.389,6.389,0,0,0,6.286-2.371c.06-.077.114-.154.165-.23a1.215,1.215,0,0,0,.854.04l4.249-3.435s-3.324,3.273-1.375,6.261l-.148.208a47.5,47.5,0,0,0-7.115,15.487s-1.821,1.343-1.972,6.719a102.863,102.863,0,0,1-1.975,14.036s-1.212,10.3-.455,13.438c0,0,.088.125.25.316-.057.068-.12.142-.188.216a3.685,3.685,0,0,1-3.25,1.423c-2.123-.45-2.123,3.284.911,3.583a80.862,80.862,0,0,1,8.287,1.662,1.744,1.744,0,0,0,2.163-1.861,15.762,15.762,0,0,0-.911-4.109c-.031-.071-.063-.142-.094-.208.088-.085.179-.171.267-.262,0,0,0-6.571,1.064-8.361,0,0,2.883-13.589,2.729-17.024-.117-2.687,7.482-13.151,10.789-17.57l-.028-.168c.854-1.138,1.383-1.821,1.383-1.821l2.558,16.278a23.284,23.284,0,0,0,2.732,5.524s6.525,12.394,7.285,16.275a12.241,12.241,0,0,0,2.3,5.356l-.2.188a3.322,3.322,0,0,1-2.863,1.027c-2.123-.45-2.123,3.284.911,3.583a81.529,81.529,0,0,1,8.284,1.665,1.747,1.747,0,0,0,2.166-1.864,13.463,13.463,0,0,0-1.167-4.627,3.2,3.2,0,0,0-.174-.285,1.6,1.6,0,0,0,.6-.424s-3.947-9.408-3.947-11.953c0,0-1.668-9.7-7.283-13.287,0,0,.529-12.14,2.129-18.9.04-.165.08-.33.12-.489a45.02,45.02,0,0,0,4.428-.922l.151-4.479.76,3.583,8.5-5.225s-.074-.942-.216-2.385c-.074-.723-.162-1.571-.268-2.49-.085-.734-.182-1.514-.285-2.311-.029-.2-.054-.4-.083-.6-.111-.805-.233-1.619-.364-2.416q-.077-.45-.154-.888c-.071-.39-.142-.771-.216-1.138-.037-.185-.077-.37-.114-.549s-.08-.359-.12-.532-.08-.341-.12-.509c-.023-.083-.043-.165-.063-.245-.043-.162-.085-.322-.128-.475a8.539,8.539,0,0,1-.307-1.958v-.788a5.646,5.646,0,0,1,.077-.785c.017-.128.04-.259.065-.387a8.687,8.687,0,0,1,.43-1.525c.094-.248.2-.492.319-.734.285-.569.569-1.175.871-1.821.154-.322.307-.652.461-.987s.31-.677.467-1.025a44.938,44.938,0,0,0,3.324-9.371c.04-.253.071-.492.085-.717A4.572,4.572,0,0,0,820.141,451.85Z" transform="translate(-554.064 -314.406)" fill="url(#linear-gradient-8)"/>
    <path id="Path_1173" data-name="Path 1173" d="M840.629,471.143l-5.006-3.384s-7.948-2.945-10.157,1.619,9.568,2.208,9.568,2.208l5.006,2.795Z" transform="translate(-599.9 -342.632)" fill="#ae6e79"/>
    <rect id="Rectangle_116" data-name="Rectangle 116" width="47.88" height="74.536" transform="matrix(0.541, -0.841, 0.841, 0.541, 186.42, 156.586)" fill="#f9fafb"/>
    <rect id="Rectangle_117" data-name="Rectangle 117" width="13.546" height="3.187" transform="matrix(0.536, -0.844, 0.844, 0.536, 195.711, 153.776)" fill="#b7b6cc"/>
    <rect id="Rectangle_118" data-name="Rectangle 118" width="29.75" height="2.923" transform="matrix(0.536, -0.844, 0.844, 0.536, 204.31, 156.093)" fill="#b7b6cc"/>
    <rect id="Rectangle_119" data-name="Rectangle 119" width="29.75" height="2.923" transform="matrix(0.536, -0.844, 0.844, 0.536, 209.58, 159.438)" fill="#b7b6cc"/>
    <rect id="Rectangle_120" data-name="Rectangle 120" width="29.75" height="2.923" transform="matrix(0.536, -0.844, 0.844, 0.536, 214.849, 162.788)" fill="#b7b6cc"/>
    <rect id="Rectangle_121" data-name="Rectangle 121" width="29.709" height="2.919" transform="matrix(0.541, -0.841, 0.841, 0.541, 220.3, 167.643)" fill="#b7b6cc"/>
    <rect id="Rectangle_122" data-name="Rectangle 122" width="29.75" height="2.923" transform="matrix(0.536, -0.844, 0.844, 0.536, 225.386, 169.483)" fill="#fff"/>
    <rect id="Rectangle_123" data-name="Rectangle 123" width="29.75" height="2.923" transform="matrix(0.536, -0.844, 0.844, 0.536, 230.656, 172.828)" fill="#fff"/>
    <rect id="Rectangle_124" data-name="Rectangle 124" width="7.704" height="7.704" transform="matrix(0.536, -0.844, 0.844, 0.536, 252.78, 158.563)" fill="#b7b6cc"/>
    <path id="Path_1174" data-name="Path 1174" d="M905.4,825.306a78.152,78.152,0,0,0-8.037-1.639c-2.945-.285-2.945-3.984-.882-3.535a3.188,3.188,0,0,0,2.775-1.01,6.5,6.5,0,0,0,.569-.623,1.707,1.707,0,0,1,.953-.583c1.1-.239,3.415-.6,4.812.156a2.08,2.08,0,0,1,.763.837,13.666,13.666,0,0,1,1.138,4.553,1.707,1.707,0,0,1-2.092,1.844Z" transform="translate(-649.863 -593.593)" fill="#bebed0"/>
    <path id="Path_1175" data-name="Path 1175" d="M774.535,830.506a77.937,77.937,0,0,0-8.034-1.639c-2.945-.285-2.945-3.984-.885-3.532a3.532,3.532,0,0,0,3.15-1.392c.08-.085.151-.168.211-.245a1.708,1.708,0,0,1,.951-.569c1.1-.242,3.415-.606,4.815.157a2.6,2.6,0,0,1,1.01,1.346,15.934,15.934,0,0,1,.882,4.05,1.707,1.707,0,0,1-2.1,1.824Z" transform="translate(-556.242 -597.323)" fill="#bebed0"/>
    <path id="Path_1176" data-name="Path 1176" d="M787.317,824.621c-3.515,3.623-6.528-.068-6.987-.677.08-.085.151-.168.211-.245a1.708,1.708,0,0,1,.951-.569c1.1-.242,3.415-.606,4.815.157A2.457,2.457,0,0,1,787.317,824.621Z" transform="translate(-567.806 -597.323)" opacity="0.1"/>
    <path id="Path_1177" data-name="Path 1177" d="M916.992,818.908c-1.523,1.039-6.648.783-6.648.783a4.812,4.812,0,0,1-.464-.569,6.5,6.5,0,0,0,.569-.623,1.707,1.707,0,0,1,.953-.583c1.1-.239,3.415-.6,4.812.156A2.08,2.08,0,0,1,916.992,818.908Z" transform="translate(-660.488 -593.593)" opacity="0.1"/>
    <path id="Path_1178" data-name="Path 1178" d="M823.827,695.458c-1.033,1.326-6.918,1.03-6.918,1.03a11.282,11.282,0,0,1-2.5-5.592c-.737-3.825-7.066-16.045-7.066-16.045a23.143,23.143,0,0,1-2.649-5.447l-2.5-16.045s-12.069,15.9-11.921,19.283-2.652,16.79-2.652,16.79c-1.03,1.767-1.03,8.253-1.03,8.253-3.825,3.984-7.063-.737-7.063-.737-.737-3.091.441-13.247.441-13.247a102.977,102.977,0,0,0,1.912-13.836c.145-5.3,1.915-6.622,1.915-6.622a47.207,47.207,0,0,1,6.913-15.271c.888-1.272,1.477-1.952,1.477-1.952l23.845,2.8A15.014,15.014,0,0,0,815,651.976c-1.551,6.659-2.066,18.626-2.066,18.626,5.447,3.532,7.066,13.091,7.066,13.091C820,686.183,823.827,695.458,823.827,695.458Z" transform="translate(-567.053 -470.831)" fill="#5c5c8e"/>
    <g id="Group_35" data-name="Group 35" transform="translate(215.609 175.183)" opacity="0.05">
      <path id="Path_1179" data-name="Path 1179" d="M809.383,673.771l-.307-1.961s-12.069,15.9-11.921,19.283-2.649,16.79-2.649,16.79c-1.033,1.767-1.033,8.253-1.033,8.253a5.031,5.031,0,0,1-2.3,1.477c1.158.3,2.561.08,4.07-1.477,0,0,0-6.477,1.03-8.253,0,0,2.8-13.4,2.649-16.79C798.805,688.444,806.173,678.125,809.383,673.771Z" transform="translate(-791.17 -664.465)"/>
      <path id="Path_1180" data-name="Path 1180" d="M852.547,683.667s-1.619-9.568-7.063-13.091c0,0,.515-11.967,2.063-18.626a15,15,0,0,1,1.027-3.159L824.729,646s-.057.063-.159.188l22.237,2.61a15.015,15.015,0,0,0-1.024,3.159c-1.551,6.659-2.066,18.626-2.066,18.626,5.447,3.532,7.066,13.091,7.066,13.091,0,2.5,3.828,11.776,3.828,11.776-.609.78-2.9,1-4.687,1.047,1.423.037,5.6.051,6.452-1.047C856.375,695.444,852.547,686.169,852.547,683.667Z" transform="translate(-815.065 -646)"/>
    </g>
    <path id="Path_1181" data-name="Path 1181" d="M788.834,632.379a5.377,5.377,0,0,1-.7,1.218,6.153,6.153,0,0,1-6.1,2.336,1.449,1.449,0,0,1-1-2.277,9.07,9.07,0,0,1,4.437-3.415,8.1,8.1,0,0,1,1.881-.381Z" transform="translate(-568.125 -459.27)" fill="#ae6e79"/>
    <path id="Path_1182" data-name="Path 1182" d="M882.7,483.2l-11.8-4.317s-3.387,1.767-2.06,4.269l11.494,7.214Z" transform="translate(-630.904 -351.257)" fill="#42383c"/>
    <path id="Path_1183" data-name="Path 1183" d="M882.854,483.367l-11.807-4.317s-3.387,1.764-2.06,4.269l11.48,7.211Z" transform="translate(-631.011 -351.378)" fill="#d9782c" opacity="0.63"/>
    <path id="Path_1184" data-name="Path 1184" d="M903.858,468.32s-.148,6.918,2.945,9.275-8.981,3.68-8.981,3.68,1.915-7.066,0-10.746S903.858,468.32,903.858,468.32Z" transform="translate(-651.648 -343.494)" fill="#ae6e79"/>
    <path id="Path_1185" data-name="Path 1185" d="M844.742,648.747a15.012,15.012,0,0,0-1.025,3.159c-14.229,2.174-24.147-3.748-24.147-3.748-.054-.085-.105-.171-.151-.256.888-1.272,1.477-1.952,1.477-1.952Z" transform="translate(-595.771 -470.781)" opacity="0.1"/>
    <path id="Path_1186" data-name="Path 1186" d="M800.662,632.414a5.377,5.377,0,0,1-.7,1.218c-1.363-.228-2.453-2.846-2.655-3.341a8.1,8.1,0,0,1,1.881-.381Z" transform="translate(-579.953 -459.306)" opacity="0.1"/>
    <path id="Path_1187" data-name="Path 1187" d="M834.371,490.78l-5.3,1.912-2.208,2.945s-4.553,1.471-5.151,1.471-2.208.589-3.239,2.943-4.71,13.842-7.948,15.752-11.776,14.719-11.776,14.719,1.471,3.984,3.239,3.387l4.121-3.387s-3.239,3.239-1.326,6.184c0,0,12.072,7.211,28.706,2.795l.145-4.414.737,3.532,8.253-5.151s-.737-9.5-2.066-14.337a8.742,8.742,0,0,1,.569-6.093c2.137-4.454,5.436-11.893,5.034-14.6a6.775,6.775,0,0,0-2.971-5,1.228,1.228,0,0,0-.518-.174l-2.7-.267Z" transform="translate(-580.984 -359.77)" fill="#ffa25a"/>
    <path id="Path_1188" data-name="Path 1188" d="M845.851,542.76s-2.945,13.688-6.184,15.9-11.921,9.275-12.217,10.453" transform="translate(-601.516 -396.958)" fill="rgba(199,91,8,0.73)" opacity="0.05"/>
    <path id="Path_1189" data-name="Path 1189" d="M841.2,541.21s-2.943,13.688-6.181,15.9-11.924,9.275-12.217,10.45" transform="translate(-598.189 -395.849)" fill="#d9782c"/>
    <path id="Path_1190" data-name="Path 1190" d="M897.28,500.926s10.157-3.387,13.091-2.5" transform="translate(-651.474 -365.132)" opacity="0.1"/>
    <g id="Group_36" data-name="Group 36" transform="translate(252.89 131.01)" opacity="0.05">
      <path id="Path_1191" data-name="Path 1191" d="M930.233,518.985c2.137-4.454,5.436-11.893,5.034-14.6a6.775,6.775,0,0,0-2.971-5,1.229,1.229,0,0,0-.518-.174l-1.138-.114a1.138,1.138,0,0,1,.341.139,6.791,6.791,0,0,1,2.968,5.006c.4,2.709-2.9,10.151-5.031,14.6a8.737,8.737,0,0,0-.569,6.09c1.332,4.838,2.069,14.337,2.069,14.337l-7.1,4.437.179.854,8.253-5.151s-.737-9.5-2.066-14.337A8.742,8.742,0,0,1,930.233,518.985Z" transform="translate(-922.993 -496.725)"/>
      <path id="Path_1192" data-name="Path 1192" d="M893.4,462.41l1.275.128-5.544-2.188-.5.179Z" transform="translate(-888.63 -460.35)"/>
    </g>
    <path id="Path_1193" data-name="Path 1193" d="M887.45,586.2s4.553-2.5,6.036-1.912,6.918-.148,6.918-.148" transform="translate(-644.441 -426.561)" opacity="0.05"/>
    <path id="Path_1194" data-name="Path 1194" d="M903.374,471.642c-.168-1.477.515-1.252.515-1.252s-7.948-1.471-6.036,2.208a8.429,8.429,0,0,1,.808,3.236h.077C900.947,475.837,902.236,473.366,903.374,471.642Z" transform="translate(-651.671 -344.975)" opacity="0.05"/>
    <circle id="Ellipse_501" data-name="Ellipse 501" cx="6.329" cy="6.329" r="6.329" transform="translate(240.729 117.614)" fill="#ae6e79"/>
    <path id="Path_1195" data-name="Path 1195" d="M878.583,445.224a8.823,8.823,0,0,0,.925-4.01,4.547,4.547,0,0,0-1.838-3.56c-.592-.4-1.292-.612-1.91-.976-.481-.285-.9-.657-1.363-.976a7.715,7.715,0,0,0-7.707-.569,35.415,35.415,0,0,0-3.247,2.151,5.441,5.441,0,0,1-3.671,1.027c-.222.612.322,1.215.82,1.636a5.54,5.54,0,0,0,3.256,1.611,3.407,3.407,0,0,1,1.423.108,2.041,2.041,0,0,1,.723.672,13.26,13.26,0,0,1,1.5,2.547,2.111,2.111,0,0,0,.672.99c.569.364,1.306.06,1.992.034a4.1,4.1,0,0,1,2.766,1.323,8.444,8.444,0,0,0,2.493,1.887c.731.285,2.194.268,2.561-.606.139-.33-.131-1.036-.074-1.44A6.967,6.967,0,0,1,878.583,445.224Z" transform="translate(-624.603 -319.408)" opacity="0.1"/>
    <path id="Path_1196" data-name="Path 1196" d="M879.049,444.694a8.783,8.783,0,0,0,.925-4.007,4.553,4.553,0,0,0-1.836-3.56c-.595-.4-1.295-.615-1.91-.979-.481-.285-.905-.655-1.363-.976a7.715,7.715,0,0,0-7.707-.569,35.373,35.373,0,0,0-3.247,2.149,5.425,5.425,0,0,1-3.671,1.027c-.222.615.319,1.218.82,1.636a5.56,5.56,0,0,0,3.256,1.614,3.362,3.362,0,0,1,1.423.108,1.992,1.992,0,0,1,.723.672,13.092,13.092,0,0,1,1.5,2.544,2.118,2.118,0,0,0,.674.99c.569.364,1.306.06,1.992.034a4.1,4.1,0,0,1,2.763,1.326,8.374,8.374,0,0,0,2.5,1.884c.731.285,2.194.268,2.561-.606.142-.33-.128-1.036-.071-1.44A6.961,6.961,0,0,1,879.049,444.694Z" transform="translate(-624.939 -319.028)" fill="#42383c"/>
    <path id="Path_1197" data-name="Path 1197" d="M438.827,532.263a2.934,2.934,0,0,1-1.884.666L309.8,532.388a3.913,3.913,0,0,1-.874-2.98l12.562-102.783,7.877-.085a2.977,2.977,0,0,1,2.9,2.2l1.471,5.43a2.977,2.977,0,0,0,2.943,2.2l31.438-.754a2.977,2.977,0,0,0,2.906-2.977v-3.6a2.977,2.977,0,0,1,2.943-2.977l43.564-.47a2.977,2.977,0,0,1,2.951,2.416l19.266,100.743.125.649a2.96,2.96,0,0,1-1.047,2.866Z" transform="translate(-230.534 -313.132)" opacity="0.1"/>
    <path id="Path_1198" data-name="Path 1198" d="M351,430.6l-43.564.47a2.977,2.977,0,0,0-2.945,2.974v3.6a2.977,2.977,0,0,1-2.9,2.974l-31.435.754a2.974,2.974,0,0,1-2.945-2.2l-1.477-5.427a2.974,2.974,0,0,0-2.906-2.2l-41.99.452a2.974,2.974,0,0,0-2.9,3.472L234.827,534.9a2.977,2.977,0,0,0,2.923,2.479l132.656.569a2.977,2.977,0,0,0,2.934-3.535L353.954,433.016A2.974,2.974,0,0,0,351,430.6Z" transform="translate(-165.429 -316.716)" fill="#e6e8ee"/>
    <path id="Path_1199" data-name="Path 1199" d="M867.932,164.721l-.228,2.533.165,4.479-.481,7.556s-.068,3.31-1.938,4.861l-4.773,7.328-.028.014-1.8.877-2.741.285-1.423-3.446.942-3.785.524-.706.145-.159a16.472,16.472,0,0,1,4.511-3.609,2.469,2.469,0,0,0,.959-2.191c-.2-1.338,1.571-8.446,1.571-8.446s1.138-4.7.891-5.16-.046-10.865,3.882-11.025S867.932,164.721,867.932,164.721Z" transform="translate(-621.004 -118.921)" fill="#f6bac2"/>
    <ellipse id="Ellipse_502" data-name="Ellipse 502" cx="4.613" cy="0.635" rx="4.613" ry="0.635" transform="translate(38.481 198.826)" fill="#6c63ff" opacity="0.1"/>
    <ellipse id="Ellipse_503" data-name="Ellipse 503" cx="4.613" cy="0.635" rx="4.613" ry="0.635" transform="translate(20.812 200.616)" fill="#6c63ff" opacity="0.1"/>
    <ellipse id="Ellipse_504" data-name="Ellipse 504" cx="4.613" cy="0.635" rx="4.613" ry="0.635" transform="translate(0 198.191)" fill="#6c63ff" opacity="0.1"/>
    <ellipse id="Ellipse_505" data-name="Ellipse 505" cx="3.278" cy="0.45" rx="3.278" ry="0.45" transform="translate(29.218 205.904)" fill="#6c63ff" opacity="0.1"/>
    <ellipse id="Ellipse_506" data-name="Ellipse 506" cx="3.278" cy="0.45" rx="3.278" ry="0.45" transform="translate(10.88 205.454)" fill="#6c63ff" opacity="0.1"/>
    <path id="Path_1200" data-name="Path 1200" d="M73.15,649.058s6.469-21.207-1.013-29.7c-5.6-6.355-11.953-5.595-14.8-4.81a5.262,5.262,0,0,0-3.392,2.82c-1,2.146-.817,5.629,6.207,9.7,11.756,6.807,12.488,16.144,12.488,16.144Z" transform="translate(-47.825 -447.947)" fill="#481a89"/>
    <path id="Path_1201" data-name="Path 1201" d="M70.54,626.41s19.067,5.976,14.8,31.5" transform="translate(-60.01 -456.802)" fill="none" stroke="#565987" stroke-miterlimit="10" stroke-width="1"/>
    <path id="Path_1202" data-name="Path 1202" d="M104.766,633.92s-2.627,1.77-1.79,4.431" transform="translate(-83.098 -462.175)" fill="none" stroke="#565987" stroke-miterlimit="10" stroke-width="1"/>
    <path id="Path_1203" data-name="Path 1203" d="M77.26,636.938a3.311,3.311,0,0,1,3.56-.731" transform="translate(-64.818 -463.617)" fill="none" stroke="#565987" stroke-miterlimit="10" stroke-width="1"/>
    <path id="Path_1204" data-name="Path 1204" d="M103.75,666.969s2.82-1.423,3.549.361" transform="translate(-83.769 -485.434)" fill="none" stroke="#565987" stroke-miterlimit="10" stroke-width="1"/>
    <path id="Path_1205" data-name="Path 1205" d="M122.844,678.764s-2.117-.168-2.154.854" transform="translate(-95.889 -494.25)" fill="none" stroke="#565987" stroke-miterlimit="10" stroke-width="1"/>
    <path id="Path_1206" data-name="Path 1206" d="M94.71,699.77s-7.578-15.413-9.659-15.083c-.988.162-1.443,1.138-1.651,2.112a6.2,6.2,0,0,0,.413,3.751A16.608,16.608,0,0,0,94.71,699.77Z" transform="translate(-69.123 -498.491)" fill="#481a89"/>
    <path id="Path_1207" data-name="Path 1207" d="M89.71,695s7.951,11.531,9.488,12.038" transform="translate(-73.725 -505.873)" fill="none" stroke="#565987" stroke-miterlimit="10" stroke-width="1"/>
    <line id="Line_1" data-name="Line 1" x2="1.855" transform="translate(15.254 190.929)" fill="none" stroke="#565987" stroke-miterlimit="10" stroke-width="1"/>
    <line id="Line_2" data-name="Line 2" x2="2.911" y2="0.125" transform="translate(17.476 195.146)" fill="none" stroke="#565987" stroke-miterlimit="10" stroke-width="1"/>
    <line id="Line_3" data-name="Line 3" x1="0.316" y2="1.517" transform="translate(18.933 191.771)" fill="none" stroke="#565987" stroke-miterlimit="10" stroke-width="1"/>
    <line id="Line_4" data-name="Line 4" x1="0.057" y2="1.377" transform="translate(22.286 196.384)" fill="none" stroke="#565987" stroke-miterlimit="10" stroke-width="1"/>
    <path id="Path_1208" data-name="Path 1208" d="M122.66,699.77s7.576-15.413,9.656-15.083c.99.162,1.446,1.138,1.651,2.112a6.2,6.2,0,0,1-.413,3.751A16.616,16.616,0,0,1,122.66,699.77Z" transform="translate(-97.298 -498.491)" fill="#481a89"/>
    <path id="Path_1209" data-name="Path 1209" d="M132.541,695s-7.968,11.531-9.491,12.038" transform="translate(-97.577 -505.873)" fill="none" stroke="#565987" stroke-miterlimit="10" stroke-width="1"/>
    <line id="Line_5" data-name="Line 5" x1="1.855" transform="translate(33.84 190.929)" fill="none" stroke="#565987" stroke-miterlimit="10" stroke-width="1"/>
    <line id="Line_6" data-name="Line 6" x1="2.911" y2="0.125" transform="translate(30.561 195.146)" fill="none" stroke="#565987" stroke-miterlimit="10" stroke-width="1"/>
    <line id="Line_7" data-name="Line 7" x2="0.316" y2="1.517" transform="translate(31.7 191.771)" fill="none" stroke="#565987" stroke-miterlimit="10" stroke-width="1"/>
    <line id="Line_8" data-name="Line 8" x2="0.057" y2="1.377" transform="translate(28.606 196.384)" fill="none" stroke="#565987" stroke-miterlimit="10" stroke-width="1"/>
    <path id="Path_1210" data-name="Path 1210" d="M75.809,745.086a1.309,1.309,0,0,1-.43-.652.569.569,0,0,1,.3-.663.836.836,0,0,1,.8.285,1.018,1.018,0,0,0,.771.361,1.178,1.178,0,0,1-.364-1.1.45.45,0,0,1,.1-.225c.154-.165.433-.094.618.037a2.336,2.336,0,0,1,.751,1.921,3.672,3.672,0,0,0,0-.791.811.811,0,0,1,.319-.692.888.888,0,0,1,.452-.108.939.939,0,0,1,.737.211.731.731,0,0,1-.028.9,2.9,2.9,0,0,1-.763.609,1.708,1.708,0,0,0-.544.521.38.38,0,0,0-.04.091H76.83A4.594,4.594,0,0,1,75.809,745.086Z" transform="translate(-63.458 -540.207)" fill="#6c63ff"/>
    <path id="Path_1211" data-name="Path 1211" d="M177.258,723.309a1.289,1.289,0,0,1-.43-.649.569.569,0,0,1,.3-.663.836.836,0,0,1,.8.285,1.049,1.049,0,0,0,.777.373,1.178,1.178,0,0,1-.367-1.1.452.452,0,0,1,.1-.225c.154-.165.433-.094.618.034a2.3,2.3,0,0,1,.751,1.924,3.7,3.7,0,0,0,0-.794.814.814,0,0,1,.285-.7.908.908,0,0,1,.452-.105.95.95,0,0,1,.737.208.731.731,0,0,1-.031.9,2.844,2.844,0,0,1-.76.609,1.69,1.69,0,0,0-.544.518.466.466,0,0,0-.04.094h-1.619a4.556,4.556,0,0,1-1.027-.711Z" transform="translate(-136.036 -524.639)" fill="#6c63ff"/>
    <path id="Path_1212" data-name="Path 1212" d="M143.441,745.122a1.335,1.335,0,0,1-.433-.652.569.569,0,0,1,.3-.663.836.836,0,0,1,.8.285,1.058,1.058,0,0,0,.777.376,1.187,1.187,0,0,1-.367-1.1.452.452,0,0,1,.1-.225c.154-.165.433-.094.618.037a2.3,2.3,0,0,1,.751,1.921,3.675,3.675,0,0,0,0-.791.814.814,0,0,1,.3-.7.88.88,0,0,1,.452-.108.942.942,0,0,1,.737.211.728.728,0,0,1-.031.9,2.888,2.888,0,0,1-.76.609,1.707,1.707,0,0,0-.544.521.381.381,0,0,0-.04.091h-1.651A4.642,4.642,0,0,1,143.441,745.122Z" transform="translate(-111.841 -540.243)" fill="#6c63ff"/>
    <path id="Path_1213" data-name="Path 1213" d="M45.2,706.25s-.618.808.285,2.029,1.648,2.251,1.346,3.011c0,0-1.363-2.277-2.473-2.3S43.977,707.6,45.2,706.25Z" transform="translate(-40.886 -513.921)" fill="#6c63ff"/>
    <path id="Path_1214" data-name="Path 1214" d="M45.2,706.25a1.019,1.019,0,0,0-.125.253c-1.081,1.272-1.659,2.459-.618,2.49.968.028,2.132,1.759,2.408,2.2a1.016,1.016,0,0,1-.031.1s-1.363-2.277-2.473-2.3S43.982,707.6,45.2,706.25Z" transform="translate(-40.892 -513.921)" opacity="0.1"/>
    <path id="Path_1215" data-name="Path 1215" d="M44.66,709.412c0,.285.031.515.071.515s.071-.231.071-.515-.04-.151-.08-.151S44.66,709.127,44.66,709.412Z" transform="translate(-41.495 -516.053)" fill="#ffd037"/>
    <path id="Path_1216" data-name="Path 1216" d="M42.886,710.58c.25.137.467.216.487.182s-.168-.171-.418-.307-.151-.037-.171,0S42.635,710.443,42.886,710.58Z" transform="translate(-40.117 -516.879)" fill="#ffd037"/>
    <path id="Path_1217" data-name="Path 1217" d="M55.889,706.25s.62.808-.285,2.029-1.648,2.251-1.346,3.011c0,0,1.363-2.277,2.473-2.3S57.11,707.6,55.889,706.25Z" transform="translate(-48.313 -513.921)" fill="#6c63ff"/>
    <path id="Path_1218" data-name="Path 1218" d="M55.975,706.25a1.079,1.079,0,0,1,.128.253c1.081,1.272,1.659,2.459.618,2.49-.968.028-2.132,1.759-2.41,2.2a.587.587,0,0,0,.034.1s1.363-2.277,2.473-2.3S57.2,707.6,55.975,706.25Z" transform="translate(-48.399 -513.921)" opacity="0.1"/>
    <path id="Path_1219" data-name="Path 1219" d="M63.842,709.412c0,.285-.031.515-.071.515s-.071-.231-.071-.515.04-.151.08-.151S63.842,709.127,63.842,709.412Z" transform="translate(-55.117 -516.053)" fill="#ffd037"/>
    <path id="Path_1220" data-name="Path 1220" d="M64.364,710.58c-.25.137-.47.216-.487.182s.168-.171.418-.307.151-.037.168,0S64.611,710.443,64.364,710.58Z" transform="translate(-55.243 -516.879)" fill="#ffd037"/>
    <path id="Path_1221" data-name="Path 1221" d="M47.344,721.243a6.351,6.351,0,0,1-2.248-.424c-.521-.37-2.658-.814-2.789-.219s-2.6,2.96-.646,2.974a16.62,16.62,0,0,0,5.054-.62C47.236,722.637,47.344,721.243,47.344,721.243Z" transform="translate(-38.815 -523.979)" fill="#a8a8a8"/>
    <path id="Path_1222" data-name="Path 1222" d="M41.63,725.706a16.424,16.424,0,0,0,5.054-.62c.4-.239.552-1.1.606-1.505h.057s-.108,1.394-.629,1.707a16.605,16.605,0,0,1-5.054.62c-.569,0-.757-.2-.746-.5C41,725.592,41.226,725.692,41.63,725.706Z" transform="translate(-38.819 -526.319)" opacity="0.2"/>
    <circle id="Ellipse_507" data-name="Ellipse 507" cx="6.156" cy="6.156" r="6.156" transform="translate(3.503 29.906)" fill="#6c63ff" opacity="0.1"/>
    <circle id="Ellipse_508" data-name="Ellipse 508" cx="6.156" cy="6.156" r="6.156" transform="translate(299.496 79.096)" fill="#6c63ff" opacity="0.1"/>
    <circle id="Ellipse_509" data-name="Ellipse 509" cx="6.156" cy="6.156" r="6.156" transform="translate(188.844 10.358)" fill="#6c63ff" opacity="0.1"/>
    <circle id="Ellipse_510" data-name="Ellipse 510" cx="10.316" cy="10.316" r="10.316" transform="translate(11.654 59.704)" fill="#6c63ff" opacity="0.1"/>
    <path id="Path_1223" data-name="Path 1223" d="M462.514,608.372l-.364-.364a.39.39,0,0,1,0-.569l3.2-3.2a.39.39,0,0,1,.569,0l3.2,3.2a.4.4,0,0,1,0,.569l-.364.364a.4.4,0,0,1-.569,0l-1.89-1.992V611.1a.393.393,0,0,1-.393.4h-.526a.4.4,0,0,1-.4-.4v-4.721l-1.89,1.992a.4.4,0,0,1-.569,0Z" transform="translate(-340.086 -440.853)" fill="#f6f7f9"/>
    <path id="Path_1224" data-name="Path 1224" d="M456.219,592.194a6.486,6.486,0,1,1-6.486,6.486,6.486,6.486,0,0,1,6.486-6.486m0-.854a7.339,7.339,0,1,0,7.339,7.339A7.339,7.339,0,0,0,456.219,591.34Z" transform="translate(-330.681 -431.713)" fill="#f6f7f9"/>
  </g>
</svg>
