<svg id="Layer_2" data-name="Layer 2" xmlns="http://www.w3.org/2000/svg" xmlns:xlink="http://www.w3.org/1999/xlink" width="148.606" height="17.077" viewBox="0 0 148.606 17.077">
  <defs>
    <linearGradient id="linear-gradient" x1="0.196" y1="0.323" x2="1.274" y2="0.903" gradientUnits="objectBoundingBox">
      <stop offset="0" stop-color="#5600ce"/>
      <stop offset="1" stop-color="#ff7000"/>
    </linearGradient>
    <linearGradient id="linear-gradient-2" x1="0.835" y1="-0.028" x2="0.191" y2="0.838" gradientUnits="objectBoundingBox">
      <stop offset="0" stop-color="#fff06b"/>
      <stop offset="1" stop-color="#fe5045"/>
    </linearGradient>
    <linearGradient id="linear-gradient-3" x1="0.011" y1="-0.026" x2="0.906" y2="0.972" gradientUnits="objectBoundingBox">
      <stop offset="0" stop-color="#fffca7"/>
      <stop offset="1" stop-color="#ff9441"/>
    </linearGradient>
    <linearGradient id="linear-gradient-4" x1="0.165" y1="-0.047" x2="1.036" y2="0.967" gradientUnits="objectBoundingBox">
      <stop offset="0" stop-color="#36008a"/>
      <stop offset="1" stop-color="#c420a8"/>
    </linearGradient>
  </defs>
  <g id="Layer_1" data-name="Layer 1" transform="translate(0 0)">
    <g id="everest_logo" data-name="everest logo">
      <path id="Subtraction_1" data-name="Subtraction 1" d="M120.869,17.077a11.34,11.34,0,0,1-1.745-.14,10.972,10.972,0,0,1-1.686-.409,9.167,9.167,0,0,1-1.476-.638,5.086,5.086,0,0,1-1.117-.8l.828-1.745a6.174,6.174,0,0,0,1,.728,7.72,7.72,0,0,0,1.277.578,8.6,8.6,0,0,0,2.892.509,8.168,8.168,0,0,0,1.735-.2,3.611,3.611,0,0,0,1.217-.5,2.364,2.364,0,0,0,.728-.778,2.125,2.125,0,0,0,.239-1,2.1,2.1,0,0,0-.09-.718,1.666,1.666,0,0,0-.4-.578,3.64,3.64,0,0,0-1.307-.778c-.519-.18-1.257-.379-2.194-.608a21.472,21.472,0,0,1-2.862-.848,4.567,4.567,0,0,1-1-.549,4.757,4.757,0,0,1-.848-.768,2.873,2.873,0,0,1-.588-1,4.349,4.349,0,0,1-.189-1.346,4.389,4.389,0,0,1,.16-1.2,4.239,4.239,0,0,1,.5-1.077,4.258,4.258,0,0,1,.748-.928,5.426,5.426,0,0,1,1.177-.708,6.653,6.653,0,0,1,1.516-.459A11.2,11.2,0,0,1,121.248,1a10.622,10.622,0,0,1,2.743.359,8.786,8.786,0,0,1,1.247.439,6.982,6.982,0,0,1,1.067.6l-.738,1.8a8.249,8.249,0,0,0-2.114-1,7.8,7.8,0,0,0-2.2-.319,7.211,7.211,0,0,0-1.666.17,3.491,3.491,0,0,0-1.2.529,2.394,2.394,0,0,0-.718.8,2.164,2.164,0,0,0-.239,1,1.825,1.825,0,0,0,.14.728,1.666,1.666,0,0,0,.4.578,3.65,3.65,0,0,0,1.336.788,20.636,20.636,0,0,0,2.174.6,21.824,21.824,0,0,1,2.852.858,4.678,4.678,0,0,1,1.855,1.307,2.912,2.912,0,0,1,.578,1,3.989,3.989,0,0,1,.189,1.326,3.99,3.99,0,0,1-.16,1.187,4.428,4.428,0,0,1-.509,1.077,3.9,3.9,0,0,1-.848.918,5.526,5.526,0,0,1-1.2.7,7.41,7.41,0,0,1-1.566.529,10.4,10.4,0,0,1-1.805.12ZM82.122,16.9H79.669l-3.391-4.837c-.419,0-.748.05-1,.05h-3.89V16.9H69.157V1.16H75.29a11.72,11.72,0,0,1,1.444.089,7.978,7.978,0,0,1,1.289.28A7.68,7.68,0,0,1,79.14,2a6.153,6.153,0,0,1,1,.638,5.277,5.277,0,0,1,.768.8,4.908,4.908,0,0,1,.549.938,5.167,5.167,0,0,1,.329,1.057,7.053,7.053,0,0,1,.11,1.207,5.985,5.985,0,0,1-.229,1.686A4.618,4.618,0,0,1,79.9,10.854a5.535,5.535,0,0,1-1.466.758l3.73,5.286ZM71.4,3.114V10.2h3.82a6.692,6.692,0,0,0,1.885-.219,3.8,3.8,0,0,0,1.376-.688,2.8,2.8,0,0,0,.838-1.117A3.75,3.75,0,0,0,79.6,6.655a3.74,3.74,0,0,0-.279-1.506,2.773,2.773,0,0,0-.838-1.157A3.99,3.99,0,0,0,77.106,3.3a7.061,7.061,0,0,0-1.885-.219ZM143.21,16.9h-2.224V3.114H135.64V1.12h12.966V3.114h-5.4Zm-38.458,0H93.362V1.16h11.1V3.154H95.606V7.981H103.5V9.857H95.606v5.106h9.166v1.995Zm-47.125,0h-11.4V1.16h11.1V3.154H48.471V7.981h7.889V9.857H48.471v5.106h9.176v1.995ZM11.4,16.9H0V1.16H11.1V3.154H2.244V7.981h7.889V9.857H2.244v5.106H11.42v1.995Z" transform="translate(0 -0.003)" fill="#fff"/>
      <g id="logo_sample_1" data-name="logo sample 1" transform="translate(19.049)">
        <path id="Path_11" data-name="Path 11" d="M38.542,8.979l-3.73-2.244L34.5,6.546h0V6.5a1,1,0,0,0-.509-.339,1.346,1.346,0,0,0-.359-.07,1.486,1.486,0,0,0-.419.08,1.1,1.1,0,0,0-.658.708,1.576,1.576,0,0,1-.588-.788.13.13,0,0,1,0-.08,1.4,1.4,0,0,1-.1-.539,1.905,1.905,0,0,1,.289-1,1.825,1.825,0,0,1,.758-.638h.06a1.636,1.636,0,0,1,.379-.1l-.2-.419-1-2.234h2.992l2.234,5.286Z" transform="translate(-19.237 -0.003)" fill="url(#linear-gradient)"/>
        <path id="Path_12" data-name="Path 12" d="M35.614,2.384a2.054,2.054,0,0,0-.349.12,2.623,2.623,0,0,0-1.237,1,2.685,2.685,0,0,0-.16.289h0l-.3.688-1,2.174a1.2,1.2,0,0,0-.13.279h0L29.45,13.754l-.838,1.895h0a.927.927,0,0,1-.05.1.189.189,0,0,1,0,.08.239.239,0,0,1-.06.09h0a.209.209,0,0,1,0,.06,1.616,1.616,0,0,1-1.277.648,1.566,1.566,0,0,1-.9-.279,1.606,1.606,0,0,1-.6-.758l.4-.918.509-1.147.2-.439a1.476,1.476,0,0,1-.449-.3,1.406,1.406,0,0,1-.339-.469,1.586,1.586,0,0,1-.15-.848h0a1.376,1.376,0,0,0,.588.269,1.466,1.466,0,0,0,.469,0l.219-.08h0a1.147,1.147,0,0,0,.578-.608l.309-.7.06-.13.319-.728v-.05l3.541-8.228h0v-.1h0a1.8,1.8,0,0,1,.16-.379A1.526,1.526,0,0,1,32.981.12,1.406,1.406,0,0,1,33.539,0a1.486,1.486,0,0,1,.509.1,1.366,1.366,0,0,1,.7.479,1.506,1.506,0,0,1,.309.529Z" transform="translate(-19.118 0)" fill="url(#linear-gradient-2)"/>
        <path id="Path_13" data-name="Path 13" d="M29.433,13.776l-.838,1.895a.112.112,0,0,1-.05.09h0a.239.239,0,0,1,0,.08.112.112,0,0,1-.05.09h0a1.566,1.566,0,0,1-1.356.818,1.586,1.586,0,0,1-1.456-1,.289.289,0,0,1,0-.1L19.1,1.1h2.992l4.887,11.071h0a1,1,0,0,0,.08.229,1.3,1.3,0,0,0,.16.309h0A2.184,2.184,0,0,0,29.1,13.786,1.865,1.865,0,0,0,29.433,13.776Z" transform="translate(-19.1 -0.003)" fill="url(#linear-gradient-3)"/>
        <path id="Path_14" data-name="Path 14" d="M38.878,9.781l-.828,1.9-.758,1.705L36,10.4l-.289-.638L34.37,6.769a.837.837,0,0,0-.08-.189l-.07-.16h0l.329.2,3.989,2.424Z" transform="translate(-19.277 -0.189)" fill="url(#linear-gradient-4)"/>
      </g>
    </g>
  </g>
</svg>
