<svg xmlns="http://www.w3.org/2000/svg" xmlns:xlink="http://www.w3.org/1999/xlink" width="150.016" height="17.134" viewBox="0 0 150.016 17.134">
  <defs>
    <linearGradient id="linear-gradient" x1="0.5" x2="0.5" y2="1" gradientUnits="objectBoundingBox">
      <stop offset="0" stop-color="#5600ce"/>
      <stop offset="1" stop-color="#ff7000"/>
    </linearGradient>
    <linearGradient id="linear-gradient-2" x1="0.5" x2="0.5" y2="1" gradientUnits="objectBoundingBox">
      <stop offset="0" stop-color="#fff06b"/>
      <stop offset="1" stop-color="#fe5045"/>
    </linearGradient>
    <linearGradient id="linear-gradient-3" x1="0.5" x2="0.5" y2="1" gradientUnits="objectBoundingBox">
      <stop offset="0" stop-color="#fffca7"/>
      <stop offset="1" stop-color="#ff9441"/>
    </linearGradient>
  </defs>
  <g id="everest_logo" data-name="everest logo" transform="translate(-120.85 -905.34)">
    <path id="Subtraction_1" data-name="Subtraction 1" d="M121.187,16.134A11.063,11.063,0,0,1,119.438,16a10.742,10.742,0,0,1-1.687-.414,8.972,8.972,0,0,1-1.479-.634,5.648,5.648,0,0,1-1.124-.8l.834-1.758a5.931,5.931,0,0,0,1.028.735,8.189,8.189,0,0,0,1.282.583,8.616,8.616,0,0,0,1.428.38,8.53,8.53,0,0,0,1.468.127,7.843,7.843,0,0,0,1.713-.166,3.524,3.524,0,0,0,1.217-.5,2.278,2.278,0,0,0,.727-.775,2.044,2.044,0,0,0,.242-.994,1.966,1.966,0,0,0-.132-.735,1.662,1.662,0,0,0-.4-.583,3.558,3.558,0,0,0-1.307-.777c-.516-.179-1.255-.384-2.2-.608a22.749,22.749,0,0,1-2.873-.856,4.8,4.8,0,0,1-1.014-.544,4.85,4.85,0,0,1-.856-.775,2.963,2.963,0,0,1-.583-1.045,4.407,4.407,0,0,1-.194-1.355,4.278,4.278,0,0,1,.166-1.2,4.016,4.016,0,0,1,.5-1.076,3.968,3.968,0,0,1,.837-.913,5.446,5.446,0,0,1,1.18-.71,6.544,6.544,0,0,1,1.515-.456A10.4,10.4,0,0,1,121.57,0a10.624,10.624,0,0,1,2.749.361A8.4,8.4,0,0,1,125.575.8a6.486,6.486,0,0,1,1.065.6L125.9,3.2a8.2,8.2,0,0,0-2.118-.958,7.943,7.943,0,0,0-2.208-.327,7.18,7.18,0,0,0-1.676.175,3.373,3.373,0,0,0-1.2.524,2.388,2.388,0,0,0-.718.8,2.113,2.113,0,0,0-.239,1,1.929,1.929,0,0,0,.135.735,1.661,1.661,0,0,0,.406.583,3.769,3.769,0,0,0,1.341.789,21.047,21.047,0,0,0,2.174.6,22.135,22.135,0,0,1,2.862.856,4.859,4.859,0,0,1,1.006.541,4.925,4.925,0,0,1,.853.766,2.917,2.917,0,0,1,.583,1.031,4.286,4.286,0,0,1,.194,1.335,4.143,4.143,0,0,1-.169,1.186,4.084,4.084,0,0,1-.507,1.079,3.943,3.943,0,0,1-.851.918,5.4,5.4,0,0,1-1.2.7,6.844,6.844,0,0,1-1.532.448A10.694,10.694,0,0,1,121.187,16.134Zm-38.848-.18H79.882l-3.4-4.845c-.419.03-.752.045-.991.045h-3.9v4.8H69.337V.18h6.152a11,11,0,0,1,1.451.092,8.174,8.174,0,0,1,1.287.275A6.413,6.413,0,0,1,79.35,1a5.529,5.529,0,0,1,.961.641,4.894,4.894,0,0,1,.769.8,4.6,4.6,0,0,1,.549.939,5.107,5.107,0,0,1,.33,1.077,6.482,6.482,0,0,1,.11,1.215,6.078,6.078,0,0,1-.225,1.69A4.717,4.717,0,0,1,80.074,9.9a5.726,5.726,0,0,1-1.476.761l3.741,5.3ZM71.59,2.141v7.1h3.831a6.992,6.992,0,0,0,1.887-.231,3.777,3.777,0,0,0,1.38-.693,2.924,2.924,0,0,0,.845-1.121,3.845,3.845,0,0,0,.282-1.515,3.824,3.824,0,0,0-.282-1.513,2.883,2.883,0,0,0-.845-1.113,3.794,3.794,0,0,0-1.38-.684,7.073,7.073,0,0,0-1.887-.228Zm72.018,13.813h-2.231V2.141h-5.408V.18h13.047v1.96h-5.408Zm-38.555,0H93.605V.18h11.132v1.96H95.859V6.985h7.909V8.9H95.859v5.093h9.194v1.96Zm-47.253,0H46.352V.18H57.484v1.96H48.605V6.985h7.909V8.9H48.605v5.093H57.8v1.96Zm-46.352,0H0V.18H11.132v1.96H2.253V6.985h7.909V8.9H2.253v5.093h9.194v1.96Z" transform="translate(121.35 905.84)" fill="#fff" stroke="rgba(0,0,0,0)" stroke-miterlimit="10" stroke-width="1"/>
    <g id="logo" transform="translate(142.152 905.854)">
      <path id="Path_9" data-name="Path 9" d="M228.653,1625.678a1.208,1.208,0,0,0-.7,1.4l2.391,5.887a1.171,1.171,0,0,0,1.37.695c1.063-.182.987-1.412.987-1.412l-2.053-5.037-.429-.953A1.381,1.381,0,0,0,228.653,1625.678Z" transform="translate(-217.391 -1624.642)" fill="url(#linear-gradient)"/>
      <path id="Path_8" data-name="Path 8" d="M188.786,1496.944a1.208,1.208,0,0,1,.7,1.4l-5,12.176s-.474.968-1.37.695-.987-1.412-.987-1.412l1.586-4,3.5-8.282A1.381,1.381,0,0,1,188.786,1496.944Z" transform="translate(-176.77 -1496.063)" fill="url(#linear-gradient-2)"/>
      <path id="Path_7" data-name="Path 7" d="M174.653,1496.944a1.208,1.208,0,0,0-.7,1.4l5.466,13.216s.474.968,1.37.695.987-1.412.987-1.412l-2.053-5.037-3.5-8.282A1.381,1.381,0,0,0,174.653,1496.944Z" transform="translate(-173.923 -1496.86)" fill="url(#linear-gradient-3)"/>
    </g>
  </g>
</svg>
