<?xml version="1.0" encoding="UTF-8" standalone="no"?>
<!DOCTYPE svg PUBLIC "-//W3C//DTD SVG 1.1//EN" "http://www.w3.org/Graphics/SVG/1.1/DTD/svg11.dtd">
<svg version="1.1" xmlns="http://www.w3.org/2000/svg" xmlns:xlink="http://www.w3.org/1999/xlink" preserveAspectRatio="xMidYMid meet" viewBox="0 0 640 640" width="640" height="640"><defs><path d="M319.82 108.62C262.23 108.62 215.55 155.31 215.55 212.89C215.55 270.48 262.23 317.16 319.82 317.16C377.4 317.16 424.09 270.48 424.09 212.89C424.09 155.31 377.4 108.62 319.82 108.62Z" id="a2JN8Ld2Al"></path><path d="M70.91 389.49C70.91 389.49 70.91 389.49 70.91 389.49C219.98 539.23 302.8 622.41 319.36 639.05C319.36 639.05 319.36 639.05 319.36 639.05C469.1 489.98 552.28 407.16 568.92 390.6C568.92 390.6 568.92 390.6 568.92 390.6C419.85 240.87 337.04 157.68 320.47 141.04C320.47 141.04 320.47 141.04 320.47 141.04C170.74 290.11 87.55 372.93 70.91 389.49Z" id="a1sHRerAIE"></path><path d="M320 139.97C279.73 139.97 247.08 172.62 247.08 212.89C247.08 253.17 279.73 285.81 320 285.81C360.27 285.81 392.92 253.17 392.92 212.89C392.92 172.62 360.27 139.97 320 139.97Z" id="aFRKobUOY"></path></defs><g><g><g><use xlink:href="#a2JN8Ld2Al" opacity="1" fill="#212121" fill-opacity="0.8"></use><g><use xlink:href="#a2JN8Ld2Al" opacity="1" fill-opacity="0" stroke="#000000" stroke-width="1" stroke-opacity="0"></use></g></g><g><use xlink:href="#a1sHRerAIE" opacity="1" fill="#ffffff" fill-opacity="1"></use><g><use xlink:href="#a1sHRerAIE" opacity="1" fill-opacity="0" stroke="#000000" stroke-width="1" stroke-opacity="0"></use></g></g><g><use xlink:href="#aFRKobUOY" opacity="1" fill="#000000" fill-opacity="0.8"></use><g><use xlink:href="#aFRKobUOY" opacity="1" fill-opacity="0" stroke="#000000" stroke-width="1" stroke-opacity="0"></use></g></g></g></g></svg>