<svg xmlns="http://www.w3.org/2000/svg" xmlns:xlink="http://www.w3.org/1999/xlink" width="83" height="83" viewBox="0 0 83 83">
  <defs>
    <filter id="plus-circle-solid" x="0" y="0" width="83" height="83" filterUnits="userSpaceOnUse">
      <feOffset dy="8" input="SourceAlpha"/>
      <feGaussianBlur stdDeviation="7.5" result="blur"/>
      <feFlood flood-color="#481a89" flood-opacity="0.302"/>
      <feComposite operator="in" in2="blur"/>
      <feComposite in="SourceGraphic"/>
    </filter>
  </defs>
  <g transform="matrix(1, 0, 0, 1, 0, 0)" filter="url(#plus-circle-solid)">
    <path id="plus-circle-solid-2" data-name="plus-circle-solid" d="M27,8A19,19,0,1,0,46,27,19,19,0,0,0,27,8ZM38.032,29.145a.922.922,0,0,1-.919.919H30.065v7.048a.922.922,0,0,1-.919.919h-4.29a.922.922,0,0,1-.919-.919V30.065H16.887a.922.922,0,0,1-.919-.919v-4.29a.922.922,0,0,1,.919-.919h7.048V16.887a.922.922,0,0,1,.919-.919h4.29a.922.922,0,0,1,.919.919v7.048h7.048a.922.922,0,0,1,.919.919Z" transform="translate(14.5 6.5)" fill="#481a89"/>
  </g>
</svg>
